<svg width="150" height="150" viewBox="0 0 150 150" fill="none" xmlns="http://www.w3.org/2000/svg">
<path d="M138.921 73.0906C145.696 65.4795 149.607 55.7703 149.97 45.6125C150.901 20.2759 129.995 -0.705321 104.524 0.0181684C94.8416 0.278625 85.5227 3.72244 78.0065 9.81422C73.616 13.3304 67.5536 13.8947 62.5961 11.2467C55.6614 7.5714 47.3601 6.10995 38.6663 7.80292C24.637 10.5377 13.6607 21.4335 10.884 35.3824C9.6773 41.4741 10.0408 47.3633 11.6399 52.7316C14.6493 62.8171 13.5008 73.6405 8.58694 82.959C4.28366 91.1055 2.59724 100.829 4.63258 111.03C7.90365 127.309 20.6245 140.086 36.9654 143.443C44.5106 144.991 51.7942 144.514 58.38 142.488C67.9897 139.521 78.4281 140.505 87.18 145.44C94.3909 149.491 103.157 151.112 112.36 149.202C124.688 146.641 137.017 134.37 139.575 122.085C141.436 113.186 139.939 104.722 136.13 97.6748C131.812 89.702 132.902 79.877 138.921 73.0906Z" fill="#F1F1F1"/>
<path d="M146.495 82.5799C147.064 79.5116 145.656 76.6779 143.351 76.2508C141.046 75.8236 138.716 77.9648 138.147 81.0331C137.579 84.1015 138.987 86.9351 141.292 87.3623C143.597 87.7894 145.927 85.6483 146.495 82.5799Z" fill="#F1F1F1"/>
<path d="M145.295 96.4225C146.639 96.4225 147.729 95.3328 147.729 93.9886C147.729 92.6444 146.639 91.5547 145.295 91.5547C143.951 91.5547 142.861 92.6444 142.861 93.9886C142.861 95.3328 143.951 96.4225 145.295 96.4225Z" fill="#F1F1F1"/>
<path d="M5.38934 72.04C8.36579 72.04 10.7787 68.6347 10.7787 64.434C10.7787 60.2334 8.36579 56.8281 5.38934 56.8281C2.41289 56.8281 0 60.2334 0 64.434C0 68.6347 2.41289 72.04 5.38934 72.04Z" fill="#F1F1F1"/>
</svg>
