<svg width="82" height="50" viewBox="0 0 82 50" fill="none" xmlns="http://www.w3.org/2000/svg">
<path d="M44.6043 3.94996C43.8205 3.86326 43.0381 4.12524 42.4646 4.66648C42.2856 4.83872 42.1304 5.03424 42.0033 5.24776L41.9944 5.25314C41.946 5.33554 41.9048 5.42152 41.8609 5.5093C41.77 5.70159 41.7041 5.90482 41.6648 6.11387C41.6505 6.18731 41.6388 6.26165 41.6308 6.33778C41.5831 6.76787 41.6406 7.20307 41.7982 7.60603C42.3132 7.26568 44.2523 8.65484 44.298 9.3239C44.767 9.32721 45.2286 9.20773 45.637 8.97728C45.838 8.86908 46.0221 8.73214 46.1834 8.57065C46.2174 8.53751 46.2505 8.50348 46.2837 8.46765L46.3025 8.44795C46.483 8.24848 46.6338 8.02403 46.7503 7.78158C47.3844 6.43281 46.805 4.82537 45.4561 4.19134C45.1862 4.06451 44.8972 3.98319 44.6007 3.95086L44.6043 3.94996Z" fill="#FF3A00"/>
<path d="M43.4641 9.18862C43.6461 9.24908 43.8341 9.28956 44.0248 9.30954C44.1176 9.31993 44.2109 9.32503 44.3042 9.32477C44.2585 8.65571 42.3194 7.26476 41.8044 7.6069C41.8902 7.82768 42.005 8.03609 42.1457 8.22669C42.3687 7.92038 43.6826 8.88679 43.4641 9.18862Z" fill="#04294F"/>
<path d="M41.7185 11.5908L43.4641 9.18862C43.6827 8.88679 42.3688 7.92038 42.1431 8.22669L39.8538 11.3785C40.2389 11.415 40.6229 11.4558 41.0056 11.5012C41.2483 11.5272 41.4812 11.5576 41.7185 11.5908Z" fill="#00AEE0"/>
<path d="M75.5719 14.9065C74.8196 14.9055 74.1012 15.22 73.5916 15.7735C73.4082 15.9662 73.2569 16.1874 73.1438 16.4282C73.0992 16.5211 73.0599 16.6165 73.0265 16.7139H73.0309C72.9629 16.9043 72.9166 17.1017 72.893 17.3024C72.8819 17.4026 72.8762 17.5034 72.876 17.6042C72.8751 18.0371 72.9793 18.4637 73.1796 18.8474C73.6552 18.4533 75.7331 19.6248 75.8505 20.2804C76.3467 20.2297 76.8188 20.0414 77.2136 19.7368C77.7 19.3006 77.9364 19.0758 78.1711 18.3109C78.5629 16.8754 77.7168 15.3942 76.2814 15.0024C76.0507 14.9395 75.8127 14.9075 75.5737 14.9074L75.5719 14.9065Z" fill="#FF3A00"/>
<path d="M73.1802 18.8447C73.2894 19.055 73.4262 19.2499 73.5868 19.4242C73.7776 19.0946 75.1882 19.9141 75.0037 20.2374C75.1904 20.2776 75.3807 20.2976 75.5716 20.2974C75.6649 20.2978 75.7582 20.2927 75.851 20.2822C75.731 19.6185 73.6558 18.4542 73.1802 18.8447Z" fill="#04294F"/>
<path d="M16.8544 32.6638C15.3192 33.3704 14.3465 34.4802 14.0125 35.9016C14.1498 35.8339 14.2987 35.7929 14.4513 35.7807C14.7475 35.7527 15.0434 35.8361 15.2816 36.0144C15.7617 34.4085 17.3353 33.6571 18.875 33.3113C18.7729 32.911 18.6878 32.5052 18.6242 32.0825C18.0155 32.2135 17.4222 32.4083 16.8544 32.6638Z" fill="#FF3A00"/>
<path d="M17.9372 36.1237C17.9366 36.1205 17.9366 36.1171 17.9372 36.1138C17.9367 36.1171 17.9367 36.1205 17.9372 36.1237Z" fill="#04294F"/>
<path d="M52.0644 32.9038C51.4455 31.4708 50.4334 30.1586 48.9386 29.2442C48.2423 28.8219 47.4879 28.5038 46.6994 28.3002C42.368 27.1555 32.9807 24.9253 25.6363 21.864C24.1961 21.2639 22.8338 20.6324 21.6058 19.9706C20.5776 21.4099 19.7527 23.1654 19.167 25.2701C18.4657 27.7852 18.3134 30.0458 18.6242 32.0825C18.6878 32.5017 18.7729 32.911 18.875 33.3114C19.0753 34.0936 19.3519 34.8544 19.7008 35.5827C18.9601 35.5415 18.2606 35.6177 18.0044 35.9912C18.1371 35.8034 18.3931 35.7516 18.5884 35.8729C19.1428 36.2106 19.7653 36.5608 20.4406 36.9191C22.0232 37.7583 23.9014 38.6387 25.9041 39.4994C28.5463 40.6369 31.4007 41.7386 34.0689 42.6656C37.0523 43.7001 39.8011 44.5133 41.7581 44.9047C47.8396 46.1246 51.5207 42.4023 52.5275 39.0606C53.0344 37.3687 52.9762 35.0113 52.0644 32.9038Z" fill="#04294F"/>
<path d="M51.853 44.6593C51.1738 45.2577 50.4214 45.7675 49.6138 46.1766C49.4661 46.2518 49.3174 46.3216 49.166 46.3897C49.4965 46.9341 49.9211 47.4153 50.4199 47.8111C51.5892 47.2864 52.6576 46.5614 53.5771 45.6687C53.128 45.2104 52.719 44.7145 52.3545 44.1864C52.1915 44.3485 52.0241 44.5053 51.853 44.6593Z" fill="#00AEE0"/>
<path d="M31.7285 16.4712L30.0214 15.9732C28.8225 17.0771 27.8381 18.3931 27.1177 19.855C27.6694 20.0646 28.2223 20.2703 28.7764 20.4721C29.5033 18.9666 30.5043 17.6098 31.7285 16.4712Z" fill="#00AEE0"/>
<path d="M63.0372 31.2854C63.0586 30.3628 62.9492 29.4418 62.7121 28.55C62.4956 27.7292 62.1898 26.9344 61.8003 26.1801C61.3955 25.3992 60.9219 24.6558 60.3852 23.9589C59.2969 22.5402 57.9552 21.2612 56.4729 20.1344C54.9659 18.9997 53.3528 18.0133 51.6561 17.1886C49.9353 16.3468 48.1506 15.6421 46.3189 15.0811C44.467 14.5021 42.5829 14.0316 40.6762 13.6723C39.5782 13.4669 38.4735 13.3053 37.3623 13.1877L37.2799 13.1779C34.0555 12.799 31.786 12.8196 30.0905 13.0265C29.0635 13.172 28.0501 13.4011 27.0605 13.7117L27.0408 13.7189C26.4703 13.8999 25.9108 14.1137 25.365 14.3592C25.2229 14.4219 25.0817 14.488 24.9413 14.5572C23.4493 15.2795 22.1027 16.2702 20.9691 17.4797L20.8724 17.5827L21.0515 17.6615C21.0349 17.6229 21.0349 17.5792 21.0515 17.5406C21.0552 17.5332 21.0593 17.5259 21.0641 17.5191L26.936 19.9696C26.936 19.9696 34.7837 22.8474 36.3036 23.2907C37.8236 23.7341 48.5741 26.9325 48.5741 26.9325C48.5741 26.9325 54.8661 28.9925 55.1348 36.0771C55.4035 43.1618 49.4268 48.1819 42.1478 46.9146C34.8688 45.6472 21.0623 39.4806 19.4877 38.4846H19.3838C19.3806 38.4774 19.3779 38.4699 19.3757 38.4623C19.3184 38.4327 19.262 38.4022 19.2056 38.3727C22.8177 43.1707 29.5585 46.3521 37.5056 48.5832C46.567 51.125 55.4107 50.1291 61.1778 46.5366C58.9136 45.8344 57.3148 43.8675 58.2795 38.3655C59.2029 33.0614 60.8822 31.469 63.0372 31.2854Z" fill="#00AEE0"/>
<path d="M19.3837 38.3378C19.4263 38.2603 19.5231 38.2312 19.6014 38.2724C21.158 39.0973 22.746 39.8613 24.3483 40.585C25.9507 41.3087 27.5817 41.9849 29.2225 42.6262C30.8633 43.2675 32.5149 43.8801 34.1844 44.4426C35.8539 45.005 37.5351 45.5281 39.2332 45.9804C39.6569 46.0995 40.085 46.1954 40.5104 46.3019C40.7236 46.3566 40.9377 46.3987 41.1517 46.4452C41.3658 46.4918 41.5799 46.5411 41.7939 46.5805C42.6467 46.7507 43.5137 46.8397 44.3833 46.8465C46.1101 46.8546 47.8459 46.4999 49.3792 45.7117C50.1474 45.3217 50.8627 44.8357 51.5082 44.2652C51.8283 43.9791 52.1316 43.6747 52.4164 43.3534C52.7007 43.0302 52.9645 42.6895 53.2064 42.3333C53.6911 41.6227 54.0824 40.8527 54.3707 40.0422C54.5122 39.6384 54.6239 39.2246 54.7048 38.8044C54.7843 38.3816 54.8369 37.9541 54.8624 37.5245C54.8857 37.0943 54.8857 36.6632 54.8624 36.233L54.8383 35.9096L54.8257 35.7484L54.8069 35.5881L54.7693 35.2666L54.7182 34.9468C54.703 34.8402 54.6824 34.7345 54.66 34.6289L54.5955 34.3118L54.5185 33.9974L54.48 33.8407L54.4343 33.6848L54.3447 33.3749L54.24 33.0686C54.1755 32.8635 54.0877 32.6656 54.0116 32.4641C53.6797 31.6696 53.2498 30.9198 52.7317 30.2321C51.6807 28.8597 50.2615 27.8138 48.6394 27.2164C48.437 27.1448 48.2373 27.0632 48.0286 27.0077C47.8199 26.9522 47.6184 26.8832 47.4016 26.8286C46.9753 26.713 46.5481 26.6002 46.1226 26.4811C44.4185 26.0124 42.7212 25.5209 41.0308 25.0068C37.6497 23.9795 34.2874 22.8886 30.9601 21.6929C27.6327 20.4972 24.3421 19.2021 21.1204 17.7448C21.0837 17.7278 21.0548 17.6974 21.0398 17.6598L20.8606 17.5809C20.6929 17.7636 20.5293 17.952 20.3698 18.1461C20.0761 18.504 20.1281 19.0323 20.486 19.3259C20.5193 19.3533 20.5548 19.3781 20.5919 19.4C20.9162 19.5917 21.2518 19.7807 21.5987 19.967C22.8284 20.6289 24.1898 21.2603 25.6291 21.8604C32.9735 24.9217 42.3609 27.1519 46.6923 28.2966C47.4807 28.5002 48.2351 28.8183 48.9314 29.2406C50.4263 30.1551 51.4392 31.4699 52.0572 32.9002C52.969 35.0077 53.0272 37.3651 52.5167 39.0579C51.5091 42.3996 47.8289 46.1219 41.7473 44.902C39.7903 44.5097 37.0416 43.6965 34.0581 42.6629C31.3962 41.7413 28.5427 40.6369 25.9005 39.5021C23.9014 38.6414 22.0232 37.761 20.437 36.9217C19.7617 36.5635 19.1392 36.2133 18.5848 35.8756C18.3895 35.7542 18.1336 35.8061 18.0008 35.9938C17.9734 36.0311 17.9523 36.0726 17.9381 36.1165C17.9376 36.1198 17.9376 36.1232 17.9381 36.1264C17.9047 36.2358 17.9171 36.354 17.9722 36.4542C18.3306 37.1251 18.7412 37.7669 19.2001 38.3736C19.2565 38.404 19.313 38.4345 19.3703 38.4632C19.3575 38.4212 19.3623 38.376 19.3837 38.3378Z" fill="#FFB400"/>
<path d="M22.1627 29.6499C22.1862 29.6924 22.2165 29.7309 22.2523 29.7636C22.4323 29.92 22.7049 29.9008 22.8613 29.7208C22.8616 29.7205 22.862 29.7201 22.8622 29.7198L22.8864 29.692C23.0246 29.5256 23.1392 29.3408 23.2268 29.1429C23.3866 28.7867 23.4804 28.4043 23.5035 28.0144C23.5093 27.9106 23.5093 27.8065 23.5035 27.7027C23.499 27.591 23.4816 27.48 23.4516 27.3722L23.4247 27.2827C23.3552 27.0629 23.1206 26.9411 22.9009 27.0106C22.8613 27.0231 22.8239 27.0415 22.7897 27.065C22.683 27.1385 22.5856 27.2244 22.4995 27.3212C22.4209 27.4105 22.3502 27.5064 22.2881 27.6078C22.1688 27.8056 22.08 28.0203 22.0248 28.2446C21.9673 28.4706 21.9455 28.7043 21.9603 28.9369C21.972 29.187 22.0413 29.431 22.1627 29.6499Z" fill="#FFB400"/>
<path d="M27.7982 35.8299C27.8304 35.8452 28.5953 36.2016 29.6387 36.5617C29.7136 36.5878 29.7924 36.6011 29.8716 36.6011C30.2673 36.6084 30.5939 36.2935 30.6011 35.8978C30.6069 35.5823 30.4056 35.3002 30.1054 35.203C29.1443 34.8716 28.4215 34.5366 28.4036 34.5285C28.0443 34.3613 27.6174 34.5172 27.4502 34.8765C27.283 35.2358 27.4388 35.6627 27.7982 35.8299Z" fill="#FFB400"/>
<path d="M14.4513 35.7807C14.2986 35.793 14.1497 35.834 14.0124 35.9016C13.0442 36.3826 12.9475 38.1166 13.0182 38.9415C13.1466 39.8725 14.0054 40.5232 14.9364 40.3948C15.8014 40.2756 16.4358 39.5211 16.4047 38.6486C16.3429 37.932 16.0384 36.5644 15.2815 36.0144C15.0434 35.8361 14.7475 35.7527 14.4513 35.7807Z" fill="#04294F"/>
<path d="M25.3612 14.3575C25.3612 14.3575 25.6362 13.8201 26.9134 13.2486C30.0366 11.8559 36.0151 11.0597 47.4293 14.4318C59.269 17.9302 64.436 24.9244 64.3993 31.3275L64.5059 31.3418C64.8829 31.3909 65.2552 31.4706 65.6192 31.58C65.9246 31.6642 66.205 31.7592 66.4647 31.8541L67.303 30.3915C67.1964 29.3607 66.9771 28.3446 66.6492 27.3615C66.2869 26.2807 65.8082 25.2426 65.2215 24.2652C64.6495 23.3169 63.9943 22.4213 63.2636 21.589C61.8216 19.9437 60.162 18.5697 58.4065 17.4027C56.6601 16.2555 54.8074 15.2789 52.874 14.4864C50.9695 13.7019 49.0061 13.0689 47.0021 12.593C45.2588 12.17 43.4951 11.8361 41.7177 11.5926C41.4804 11.5603 41.243 11.529 41.0012 11.503C40.6179 11.4576 40.2339 11.4168 39.8494 11.3803C38.2075 11.2198 36.5573 11.16 34.908 11.2012C32.866 11.2441 30.8335 11.4938 28.8418 11.9464C26.823 12.3897 25.6685 13.3525 24.9009 14.5769L24.9331 14.5617C25.0728 14.493 25.2141 14.4271 25.3568 14.3637L25.3612 14.3575Z" fill="#FF3A00"/>
<path d="M73.5871 19.4242L67.3032 30.3915L66.4648 31.8541C66.9787 32.0428 67.4697 32.2889 67.9283 32.5876L75.004 20.2374C75.1885 19.9141 73.7779 19.0946 73.5871 19.4242Z" fill="#00AEE0"/>
<path d="M67.1822 46.1703C66.9044 46.3141 66.6142 46.4325 66.3152 46.5241C66.6186 46.4453 66.9103 46.3263 67.1822 46.1703Z" fill="#04294F"/>
<path d="M70.1783 36.6808C70.0744 35.5728 69.7967 34.7345 69.3892 34.1022C68.8849 33.3185 68.1819 32.8483 67.365 32.5796C66.9954 32.4601 66.6155 32.3753 66.2302 32.3261C63.5889 31.9678 61.5191 32.8501 60.4756 38.8089C59.4322 44.7677 61.64 46.2365 64.284 46.6011C64.4631 46.6261 64.6494 46.6449 64.8303 46.6557C65.3258 46.6913 65.8239 46.6493 66.3064 46.5312H66.3135C66.6126 46.4397 66.9028 46.3213 67.1805 46.1774C67.8541 45.7914 68.4523 45.1474 68.9441 44.1452C70.6306 40.5966 70.1783 36.6808 70.1783 36.6808Z" fill="#FFB400"/>
<path d="M70.3858 36.9943L70.3805 36.9853C70.3217 36.8934 70.2558 36.8063 70.1834 36.7247C69.9166 36.427 69.5744 36.207 69.1928 36.0879C69.0557 36.0423 68.9157 36.0061 68.7736 35.9795C68.693 35.9634 68.6106 35.9499 68.5264 35.9374C67.6308 35.8156 66.8408 35.9374 66.2192 36.7488C66.1027 36.89 66.0035 37.0445 65.9237 37.2092L65.7571 38.4004L67.4355 44.3207C67.4355 44.3207 67.3352 44.37 67.9729 44.3521C68.1893 44.3492 68.4045 44.3191 68.6133 44.2625H68.6223C68.7337 44.2252 68.8432 44.1822 68.9501 44.1335C68.9985 44.112 69.0397 44.0896 69.0853 44.0673C69.8637 43.6194 70.4736 42.5849 70.7629 40.5115C71.0038 38.773 70.8238 37.6758 70.3858 36.9943Z" fill="#FF3A00"/>
<path d="M67.7006 44.3467L67.4856 44.327C67.5572 44.3387 67.6298 44.3387 67.7006 44.3467Z" fill="#FF3A00"/>
<path d="M67.3559 44.3118H67.3845L67.4356 44.3172L67.6147 42.2813L67.9112 42.318C67.9694 42.3261 68.0249 42.3315 68.0769 42.3342C68.2252 42.3459 68.3744 42.3328 68.5184 42.2957C68.574 42.2776 68.6283 42.2563 68.6815 42.2321C68.7065 42.2204 68.7271 42.2106 68.7459 42.1998C69.1651 41.9598 69.4517 41.323 69.5932 40.31C69.715 39.4403 69.6541 38.8071 69.4141 38.4291L69.4043 38.4139C69.3775 38.3739 69.3476 38.3361 69.3147 38.301C69.1894 38.1625 69.0287 38.0605 68.8498 38.0064C68.7801 37.9833 68.7089 37.9648 68.6367 37.9508C68.5928 37.9419 68.5471 37.9356 68.505 37.9293C67.9999 37.8604 67.6909 37.9544 67.4374 38.2554L67.2538 38.473L65.9237 37.2092C65.6085 37.7932 65.3469 38.6118 65.149 39.743C64.5399 43.2209 65.818 44.0923 67.3559 44.3118ZM68.3411 38.9808L68.4083 38.9925C68.4472 38.9995 68.4855 39.0093 68.5229 39.022C68.6265 39.0544 68.7193 39.1141 68.7916 39.1949C68.8115 39.2169 68.8295 39.2406 68.8454 39.2657C68.9645 39.4528 69.0137 39.7529 68.9484 40.2267C68.8687 40.7936 68.7021 41.0767 68.4898 41.1985L68.4522 41.2173C68.4265 41.2292 68.3966 41.2408 68.3626 41.2522C68.2814 41.2734 68.1973 41.2809 68.1136 41.2746L68.024 41.2666H68.016C67.5959 41.2065 67.2466 40.9683 67.4132 40.018C67.5798 39.0677 67.9184 38.9235 68.342 38.9808H68.3411Z" fill="#FF3A00"/>
<path d="M68.6216 44.2598C68.7327 44.228 68.8412 44.1873 68.9458 44.138C68.9924 44.1156 69.0354 44.0914 69.0846 44.0646C69.0425 44.087 68.9951 44.1094 68.9494 44.1309C68.8425 44.1795 68.733 44.2226 68.6216 44.2598Z" fill="#04294F"/>
<path d="M68.7451 35.6911C68.5628 35.6195 68.3768 35.5576 68.188 35.5057L68.1288 35.4887C67.9898 35.4483 67.8487 35.4154 67.7061 35.3902C67.6434 35.3785 67.5816 35.3696 67.5189 35.3606C65.8404 35.1322 64.5247 35.6947 63.8619 39.4806C63.235 43.0722 64.4638 44.0977 66.0223 44.3888C66.0473 44.3942 66.0715 44.3987 66.0966 44.4023C66.4805 44.4731 66.8708 44.5031 67.2609 44.4918C67.7206 44.4797 68.1763 44.4025 68.6143 44.2625C68.4054 44.3191 68.1903 44.3492 67.9739 44.3521L68.1056 42.8769C68.2996 42.8861 68.494 42.8646 68.6815 42.8134H68.6913C68.765 42.7889 68.8374 42.7605 68.9081 42.7283C68.9439 42.713 68.9752 42.6969 69.012 42.6772C69.5968 42.3422 69.9623 41.5944 70.1297 40.3915C70.2713 39.3803 70.188 38.6477 69.8754 38.1524L69.8592 38.1273C69.8191 38.0642 69.7742 38.0043 69.7249 37.9482C69.5368 37.7393 69.2961 37.5847 69.0281 37.5003C68.9364 37.4695 68.8428 37.445 68.7477 37.4269C68.6958 37.4173 68.642 37.4083 68.5865 37.4C68.2121 37.3499 67.6909 37.3346 67.235 37.7117L66.2193 36.7489C66.8409 35.9428 67.6264 35.8156 68.5265 35.9374C68.6107 35.9499 68.6931 35.9634 68.7737 35.9795C68.9158 36.0061 69.0558 36.0423 69.1929 36.0879C69.5739 36.2057 69.9161 36.4242 70.1835 36.7202C70.2558 36.8018 70.3218 36.8889 70.3805 36.9808C70.3219 36.8751 70.2542 36.7747 70.1781 36.6808C69.9479 36.3915 69.5198 35.9983 68.7451 35.6911ZM67.2645 38.4748L67.4481 38.2572C67.7016 37.9562 68.0106 37.8622 68.5158 37.9311C68.5597 37.9374 68.6053 37.9437 68.6474 37.9526C68.7196 37.9666 68.7908 37.9851 68.8606 38.0082C69.0395 38.0624 69.2001 38.1642 69.3254 38.3028C69.3583 38.3379 69.3882 38.3757 69.415 38.4157L69.4249 38.4309C69.6649 38.8107 69.7258 39.4439 69.604 40.3118C69.4625 41.3248 69.1759 41.9616 68.7567 42.2016C68.7379 42.2124 68.7173 42.2222 68.6922 42.2339C68.6391 42.2581 68.5846 42.2794 68.5292 42.2975C68.3852 42.3346 68.236 42.3477 68.0876 42.336C68.0357 42.336 67.9802 42.3279 67.9219 42.3199L67.6255 42.2831L67.4464 44.319L67.3953 44.3136H67.3666C65.8288 44.0941 64.5507 43.2227 65.1597 39.7457C65.3577 38.6145 65.6192 37.7959 65.9345 37.2119L67.2645 38.4748Z" fill="#04294F"/>
<path d="M66.4647 31.8541C66.205 31.7565 65.9273 31.6642 65.6192 31.58C65.2552 31.4706 64.8829 31.3909 64.5059 31.3418L64.3993 31.3275C64.436 24.9244 59.269 17.9302 47.4293 14.4318C36.0151 11.0597 30.0366 11.8559 26.9179 13.2486C25.6407 13.8183 25.3657 14.3575 25.3657 14.3575C25.9115 14.1119 26.4711 13.8981 27.0415 13.7171L27.0612 13.7099C28.0508 13.3993 29.0642 13.1702 30.0912 13.0247C31.7867 12.8169 34.0518 12.7972 37.2806 13.1761L37.363 13.1859C38.4737 13.3024 39.5783 13.4639 40.677 13.6705C42.5836 14.0298 44.4677 14.5003 46.3196 15.0794C48.1513 15.6403 49.936 16.345 51.6568 17.1868C53.3539 18.012 54.9673 18.9991 56.4746 20.1344C57.9569 21.2612 59.2986 22.5402 60.3868 23.9589C60.9235 24.6558 61.3971 25.3992 61.8019 26.1801C62.1914 26.9345 62.4972 27.7292 62.7137 28.55C62.9508 29.4418 63.0602 30.3628 63.0388 31.2854C60.8839 31.4645 59.2045 33.0615 58.2766 38.3611C57.312 43.8631 58.9107 45.8299 61.175 46.5321C61.4168 46.6056 61.6626 46.6654 61.9112 46.7113C61.9694 46.7229 62.0267 46.7336 62.0849 46.7435C63.7697 47.04 65.2744 46.8438 66.3098 46.5205C65.8273 46.6386 65.3292 46.6806 64.8337 46.645C64.6546 46.6342 64.4754 46.6154 64.2874 46.5903C61.6461 46.2321 59.4356 44.7623 60.479 38.7981C61.5225 32.834 63.5923 31.9544 66.2336 32.3154C66.6189 32.3645 66.9988 32.4494 67.3684 32.5688C68.1853 32.8375 68.891 33.3087 69.3926 34.0915C69.2341 33.8022 68.8409 33.1815 67.93 32.5769C67.4703 32.2818 66.9787 32.0393 66.4647 31.8541Z" fill="#04294F"/>
<path d="M25.9802 18.8357C26.2418 18.8357 26.454 18.6236 26.454 18.3619C26.454 18.1003 26.2418 17.8881 25.9802 17.8881C25.7185 17.8881 25.5063 18.1003 25.5063 18.3619C25.5063 18.6236 25.7185 18.8357 25.9802 18.8357Z" fill="#04294F"/>
<path d="M62.7853 40.8984C63.047 40.8984 63.2591 40.6863 63.2591 40.4246C63.2591 40.163 63.047 39.9508 62.7853 39.9508C62.5237 39.9508 62.3115 40.163 62.3115 40.4246C62.3115 40.6863 62.5237 40.8984 62.7853 40.8984Z" fill="#04294F"/>
<path d="M62.6467 42.7032C62.9083 42.7032 63.1205 42.4911 63.1205 42.2294C63.1205 41.9677 62.9083 41.7556 62.6467 41.7556C62.385 41.7556 62.1729 41.9677 62.1729 42.2294C62.1729 42.4911 62.385 42.7032 62.6467 42.7032Z" fill="#04294F"/>
<path d="M27.0325 16.4417C26.7703 16.4411 26.5574 16.6533 26.5569 16.9155C26.5563 17.1776 26.7685 17.3905 27.0307 17.391C27.2928 17.3916 27.5057 17.1794 27.5063 16.9172C27.5063 16.9166 27.5063 16.9161 27.5063 16.9155C27.5063 16.6537 27.2942 16.4417 27.0325 16.4417Z" fill="#04294F"/>
<path d="M39.2432 35.5317C39.2665 35.5746 39.2967 35.6133 39.3327 35.6463C39.5135 35.802 39.7861 35.7824 39.9427 35.6024L39.966 35.5747C40.1048 35.4087 40.2194 35.2238 40.3063 35.0256C40.3861 34.8485 40.4494 34.6644 40.4953 34.4757C40.5429 34.2857 40.5729 34.0917 40.5849 33.8962C40.5911 33.7927 40.5911 33.6889 40.5849 33.5854C40.5802 33.4734 40.5631 33.3622 40.5338 33.254L40.5069 33.1644C40.494 33.1256 40.4756 33.0888 40.4523 33.0552C40.3214 32.8651 40.0613 32.817 39.871 32.9477C39.7643 33.0206 39.6671 33.1067 39.5817 33.2038C39.5026 33.2923 39.4319 33.388 39.3704 33.4896C39.2507 33.6875 39.1618 33.9025 39.107 34.1273C39.0488 34.3528 39.0267 34.5862 39.0416 34.8187C39.0538 35.0686 39.1228 35.3124 39.2432 35.5317Z" fill="#FFB400"/>
<path d="M58.1672 27.9114H58.1833C60.2129 27.7932 61.8197 27.6015 61.8358 27.5998C61.9842 27.5822 62.0903 27.4477 62.0727 27.2993C62.0552 27.1509 61.9206 27.0448 61.7722 27.0624C61.757 27.0624 60.2604 27.2415 58.3347 27.3606C58.0365 26.7337 56.8963 24.5895 54.573 22.7032C55.7008 22.3852 56.8707 22.2427 58.0418 22.2804H58.0499C58.1983 22.2824 58.3202 22.1637 58.3222 22.0153C58.3241 21.8669 58.2055 21.745 58.0571 21.7431C55.6047 21.6759 53.98 22.3306 53.912 22.3584C53.7747 22.4146 53.709 22.5716 53.7652 22.7089C53.7835 22.7535 53.8135 22.7924 53.8519 22.8214C56.7082 24.9791 57.9057 27.7198 57.9173 27.7475C57.9598 27.8478 58.0584 27.9124 58.1672 27.9114Z" fill="#04294F"/>
<path d="M42.0546 24.8026C42.2139 24.35 42.4098 23.9113 42.6403 23.4905C42.7138 23.3615 42.6108 23.254 42.4818 23.1806C42.3528 23.1071 42.2471 23.0955 42.1737 23.2245C41.9224 23.6817 41.7094 24.1589 41.5369 24.6512L42.0546 24.8026Z" fill="#FF3A00"/>
<path d="M44.6725 24.0843C44.7459 23.9553 44.6438 23.8478 44.5148 23.7744C44.3858 23.7009 44.2793 23.6893 44.2058 23.8183C43.9553 24.2741 43.7429 24.7498 43.5708 25.2406L44.0903 25.3884C44.2487 24.9387 44.4434 24.5026 44.6725 24.0843Z" fill="#FF3A00"/>
<path d="M46.7359 24.6781C46.8094 24.5491 46.7064 24.4416 46.5774 24.3682C46.4484 24.2948 46.3427 24.2831 46.2693 24.4121C46.0221 24.8638 45.8123 25.335 45.6423 25.821L46.1627 25.9652C46.3186 25.5214 46.5103 25.0909 46.7359 24.6781Z" fill="#FF3A00"/>
<path d="M68.0214 41.2692H68.0286L68.1181 41.2773C68.2018 41.2836 68.2859 41.276 68.3671 41.2549C68.4005 41.243 68.4305 41.2313 68.4567 41.22L68.4943 41.2012C68.7066 41.0793 68.8732 40.7963 68.9529 40.2294C69.0183 39.7556 68.969 39.4555 68.8499 39.2683C68.834 39.2433 68.816 39.2196 68.7962 39.1976C68.7238 39.1168 68.631 39.057 68.5275 39.0247C68.49 39.012 68.4517 39.0021 68.4128 38.9952L68.3456 38.9835C67.922 38.9262 67.5897 39.0677 67.4222 40.0234C67.2547 40.979 67.6013 41.2092 68.0214 41.2692Z" fill="#04294F"/>
<path d="M77.6497 18.8572C77.5503 18.5799 77.3983 18.3244 77.2018 18.1049C77.0214 17.8945 76.8193 17.7036 76.5991 17.5353C76.3834 17.3692 76.1555 17.2194 75.9175 17.0874C75.4425 16.8163 74.9253 16.6268 74.3877 16.5267C74.103 16.4738 73.8112 16.4701 73.5252 16.516C73.3696 16.5437 73.2201 16.5985 73.0836 16.6781C73.0657 16.6889 73.0487 16.7023 73.0317 16.7148C72.9113 16.7966 72.8137 16.9076 72.7477 17.0373C72.7016 17.1248 72.7352 17.2332 72.8228 17.2793C72.8462 17.2915 72.8719 17.2985 72.8982 17.2997C72.9511 17.3041 73.0034 17.2847 73.0406 17.2469L73.0541 17.2343C73.1988 17.1027 73.391 17.0361 73.5861 17.0498C73.812 17.0536 74.0366 17.0879 74.2533 17.1519C74.7138 17.2881 75.1573 17.4762 75.5753 17.7126C75.9953 17.941 76.3863 18.2192 76.7397 18.5411C76.9038 18.6903 77.0434 18.8644 77.1535 19.057C77.2563 19.2206 77.2809 19.4215 77.2206 19.6051L77.2153 19.6203C77.2023 19.6587 77.2023 19.7002 77.2153 19.7386C77.2264 19.7738 77.2475 19.8049 77.2762 19.8281C77.3569 19.8894 77.4719 19.8737 77.5332 19.7932C77.6349 19.6609 77.697 19.5026 77.7124 19.3364C77.7141 19.3066 77.7141 19.2767 77.7124 19.2469C77.7117 19.1146 77.6906 18.9831 77.6497 18.8572Z" fill="#04294F"/>
<path d="M77.6614 17.4161C77.2706 16.9885 76.811 16.6291 76.3018 16.353C75.7997 16.0683 75.2554 15.8654 74.6896 15.752C74.3946 15.6929 74.0918 15.6841 73.7939 15.726C73.7262 15.7381 73.6592 15.754 73.5933 15.7735C73.506 15.7993 73.4221 15.8354 73.3434 15.881C73.1978 15.9629 73.0783 16.0843 72.9986 16.2312C72.9628 16.2974 72.9875 16.3799 73.0537 16.4157C73.082 16.431 73.1148 16.4358 73.1464 16.4291C73.1764 16.4234 73.2036 16.4076 73.2234 16.3843L73.2288 16.379C73.3869 16.2113 73.6092 16.1194 73.8396 16.1264C74.0922 16.1217 74.3441 16.1537 74.5875 16.2213C74.8409 16.2875 75.0891 16.3725 75.33 16.4757C75.5759 16.5763 75.8152 16.6924 76.0465 16.8232C76.2786 16.9495 76.5026 17.0901 76.7173 17.2442C76.9303 17.3945 77.1313 17.5613 77.3183 17.743C77.4995 17.9141 77.6509 18.1142 77.7661 18.3351C77.8796 18.534 77.8955 18.774 77.8091 18.9862V18.9925C77.7928 19.0298 77.7949 19.0725 77.8145 19.108C77.8238 19.1282 77.838 19.1457 77.8557 19.1591C77.9177 19.2021 78.0026 19.1873 78.0465 19.1259C78.1429 18.9903 78.2 18.8307 78.2113 18.6647C78.2192 18.5464 78.2083 18.4276 78.179 18.3127C78.1683 18.2697 78.1567 18.2231 78.1423 18.1855C78.0327 17.9006 77.8694 17.6394 77.6614 17.4161Z" fill="#04294F"/>
<path d="M41.7598 6.06725C41.9175 5.95153 42.1154 5.90531 42.308 5.93917C42.5322 5.96684 42.7519 6.02435 42.9609 6.11024C43.4038 6.29421 43.8244 6.52762 44.2148 6.80617C44.6098 7.0771 44.9707 7.3947 45.2896 7.75198C45.4373 7.91759 45.5581 8.10523 45.6479 8.30818C45.7333 8.48176 45.7369 8.68436 45.6577 8.8608L45.6506 8.87513C45.6188 8.94687 45.6349 9.03071 45.6909 9.08561C45.7612 9.1552 45.8746 9.15458 45.9441 9.08427C45.946 9.08239 45.9479 9.08042 45.9497 9.07845C46.0636 8.95691 46.1409 8.80572 46.1727 8.64226C46.1727 8.61808 46.1799 8.59479 46.1826 8.57061C46.199 8.43411 46.1926 8.29573 46.1638 8.16129C46.095 7.87531 45.9711 7.60554 45.7992 7.36685C45.6421 7.13998 45.462 6.92985 45.2618 6.73989C45.0659 6.55216 44.8563 6.37912 44.6349 6.2222C44.1888 5.90281 43.6923 5.66062 43.166 5.50567C42.8882 5.42345 42.5982 5.38924 42.3089 5.40446C42.1562 5.41548 42.0065 5.45274 41.8664 5.51463L41.853 5.52C41.7007 5.58951 41.5716 5.70146 41.4813 5.84244C41.4153 5.9166 41.4219 6.03035 41.4961 6.09636C41.5702 6.16237 41.684 6.15574 41.75 6.08158L41.7598 6.06725Z" fill="#04294F"/>
<path d="M42.0259 5.23431C42.1889 5.07846 42.4173 5.0301 42.66 5.04711C42.9116 5.06924 43.1586 5.12745 43.3935 5.21997C43.6386 5.31268 43.8766 5.42311 44.1056 5.55047C44.3375 5.6773 44.5617 5.81756 44.7773 5.97054C44.9963 6.12029 45.2057 6.28366 45.4043 6.45956C45.6009 6.63117 45.7835 6.81801 45.9506 7.01845C46.1135 7.20753 46.2437 7.4224 46.3358 7.65437C46.4282 7.86404 46.4186 8.10471 46.3098 8.30641V8.31178C46.2856 8.35361 46.2856 8.4052 46.3098 8.44702C46.3169 8.46046 46.3264 8.47255 46.3375 8.48285C46.3946 8.53256 46.4812 8.52665 46.5309 8.4696C46.5309 8.46951 46.531 8.46951 46.531 8.46942C46.6412 8.34465 46.7146 8.19185 46.7433 8.02786C46.7577 7.94626 46.7628 7.86333 46.7585 7.78066C46.7541 7.70103 46.7427 7.62186 46.7245 7.5442C46.6475 7.25034 46.515 6.97394 46.334 6.73005C45.9899 6.26395 45.5702 5.85867 45.0926 5.53077C44.6222 5.1949 44.1013 4.93605 43.5494 4.76409C43.2626 4.67479 42.9628 4.63449 42.6627 4.64496C42.5984 4.64908 42.5343 4.65714 42.471 4.66915C42.377 4.68545 42.2852 4.71312 42.1978 4.75155C42.0444 4.81756 41.9129 4.92602 41.819 5.06413C41.7828 5.11724 41.7883 5.18836 41.8324 5.2352C41.8766 5.28115 41.9469 5.28975 42.0008 5.2558C42.0099 5.25132 42.0186 5.24586 42.0268 5.23968L42.0259 5.23431Z" fill="#04294F"/>
<path d="M46.7486 3.50838C46.7973 3.53587 46.859 3.51868 46.8864 3.46995C46.8864 3.46995 46.8864 3.46986 46.8865 3.46986L47.6971 2.02159L48.5291 2.57958L48.5838 2.6172C48.6209 2.6421 48.6621 2.66028 48.7056 2.67094C48.9183 2.72575 49.1351 2.59776 49.19 2.38513C49.19 2.38486 49.1901 2.3846 49.1901 2.38433L49.7687 0.125481C49.7883 0.0797133 49.767 0.0267821 49.7213 0.00725677C49.6755 -0.0122685 49.6226 0.00895841 49.603 0.0547264L48.6483 1.58182L47.7983 1.01039L47.741 0.971878C47.6974 0.943217 47.6488 0.923154 47.5977 0.912764C47.3813 0.869952 47.1711 1.01075 47.1283 1.22714L46.6966 3.4C46.6883 3.44362 46.7093 3.4876 46.7486 3.50838Z" fill="#FFB400"/>
<path d="M45.0262 3.11248C45.0458 3.1535 45.095 3.17088 45.1361 3.15126C45.1646 3.13765 45.1827 3.10908 45.1829 3.07755L45.1874 2.1389L45.5457 1.97679L45.6084 1.94813C45.7441 1.88615 45.8067 1.72788 45.7499 1.58986L45.2537 0.370877C45.2397 0.332812 45.1976 0.313196 45.1595 0.327168C45.1309 0.337648 45.1117 0.364606 45.1113 0.395059L45.0593 1.40984L44.6912 1.57643L44.6258 1.60688C44.4862 1.67262 44.4263 1.83913 44.492 1.97876C44.4921 1.97903 44.4923 1.97921 44.4924 1.97947L45.0262 3.11248Z" fill="#FFB400"/>
<path d="M49.2688 4.2437L49.233 4.1819C49.1515 4.05087 48.9792 4.01066 48.8481 4.09216C48.8481 4.09225 48.848 4.09225 48.8479 4.09234L47.7803 4.74348C47.7542 4.76104 47.7392 4.79095 47.7408 4.8223C47.7456 4.86717 47.7854 4.89995 47.8304 4.89574L48.7646 4.80618L48.9634 5.14473L48.9992 5.20474C49.0751 5.33256 49.2381 5.37796 49.3691 5.30774L50.5335 4.68616C50.559 4.6729 50.5744 4.64595 50.5729 4.61719C50.5705 4.57644 50.5357 4.54527 50.495 4.54733L49.4802 4.60197L49.2688 4.2437Z" fill="#FFB400"/>
<path d="M77.2474 14.5133C77.2978 14.5362 77.3573 14.514 77.3802 14.4636C77.3804 14.4631 77.3806 14.4627 77.3808 14.4622L78.0589 12.9468L78.9384 13.4269L78.9966 13.4591C79.1897 13.5638 79.4311 13.4921 79.5357 13.2991C79.5571 13.2597 79.5716 13.2168 79.5788 13.1725L79.9505 10.8707C79.9658 10.8235 79.9399 10.7727 79.8927 10.7574C79.8455 10.7421 79.7947 10.7679 79.7794 10.8151L78.967 12.4219L78.0714 11.9302L78.0114 11.898C77.9657 11.8731 77.9154 11.8575 77.8636 11.8523C77.6443 11.829 77.4475 11.9879 77.4242 12.2073C77.4241 12.2084 77.4239 12.2095 77.4238 12.2106L77.1919 14.4139C77.1879 14.4554 77.21 14.4949 77.2474 14.5133Z" fill="#FFB400"/>
<path d="M75.4965 14.2733C75.5121 14.3006 75.5422 14.3163 75.5735 14.3136C75.6189 14.3098 75.6526 14.27 75.6489 14.2246C75.6489 14.2245 75.6489 14.2242 75.6488 14.224L75.5682 13.2889L75.9094 13.0946L75.9703 13.0605C76.0995 12.9866 76.1474 12.8237 76.0787 12.6915L75.4732 11.5227C75.4602 11.4974 75.4336 11.482 75.4051 11.4833C75.3646 11.4847 75.333 11.5188 75.3344 11.5593V11.5594L75.3747 12.5751L75.0236 12.7748L74.9609 12.8107C74.8279 12.889 74.7837 13.0603 74.8619 13.1933C74.8621 13.1936 74.8622 13.1937 74.8624 13.194L75.4965 14.2733Z" fill="#FFB400"/>
<path d="M81.0657 15.1976L80.0599 15.3436L79.8243 15.0158L79.7822 14.9567C79.6898 14.8331 79.5149 14.8074 79.3908 14.8993L78.3859 15.6454C78.3493 15.6716 78.3409 15.7225 78.367 15.7592C78.3859 15.7856 78.4186 15.7982 78.4504 15.7914L79.372 15.6123L79.6004 15.9311L79.6416 15.9885C79.7288 16.109 79.8954 16.1394 80.0196 16.0574L81.1186 15.3328C81.1424 15.3173 81.155 15.2893 81.1508 15.2612C81.146 15.2209 81.1093 15.1922 81.069 15.1971C81.068 15.1972 81.0669 15.1974 81.0657 15.1976Z" fill="#FFB400"/>
<path d="M21.125 17.7475C24.3493 19.2048 27.6382 20.5035 30.9646 21.6956C34.2911 22.8877 37.6543 23.9786 41.0354 25.0095C42.7252 25.523 44.4225 26.0144 46.1272 26.4838C46.5526 26.6029 46.9799 26.7157 47.4062 26.8313C47.623 26.8868 47.8254 26.9504 48.0332 27.0104C48.241 27.0704 48.4416 27.1474 48.644 27.2191C50.2661 27.8165 51.6853 28.8623 52.7363 30.2348C53.2544 30.9224 53.6843 31.6723 54.0161 32.4667C54.0923 32.6683 54.18 32.8662 54.2445 33.0713L54.3493 33.3776L54.4389 33.6875L54.4846 33.8434L54.5231 34.0001L54.6001 34.3145L54.6646 34.6315C54.687 34.7372 54.7076 34.8429 54.7228 34.9495L54.7739 35.2692L54.8115 35.5908L54.8303 35.7511L54.8428 35.9123L54.867 36.2357C54.8903 36.6658 54.8903 37.097 54.867 37.5272C54.8421 37.9564 54.79 38.3835 54.7112 38.8062C54.6291 39.225 54.5166 39.6372 54.3744 40.0395C54.0861 40.85 53.6948 41.62 53.2101 42.3306C52.9672 42.6878 52.7021 43.0294 52.4165 43.3534C52.1311 43.6756 51.8273 43.981 51.5065 44.2679C50.861 44.8383 50.1457 45.3244 49.3775 45.7144C47.8442 46.5026 46.1084 46.8573 44.3816 46.8492C43.514 46.8411 42.6491 46.7511 41.7985 46.5805C41.5844 46.5411 41.3704 46.4909 41.1563 46.4452C40.9422 46.3996 40.7282 46.3557 40.515 46.3019C40.0896 46.1954 39.6615 46.0995 39.2378 45.9804C37.5361 45.5281 35.8576 45.0041 34.189 44.4426C32.5204 43.881 30.867 43.2675 29.2271 42.6262C27.5871 41.9849 25.9579 41.3104 24.3529 40.585C22.7479 39.8595 21.159 39.0973 19.6059 38.2724C19.5276 38.2312 19.4308 38.2603 19.3883 38.3378C19.3679 38.3754 19.3634 38.4195 19.3757 38.4605C19.3874 38.502 19.4155 38.537 19.4537 38.5572C21.0085 39.4018 22.5956 40.1846 24.2006 40.9271C25.8057 41.6696 27.4277 42.3682 29.0676 43.0274C30.7076 43.6866 32.3654 44.3064 34.0394 44.8796C35.7134 45.4529 37.3999 45.9902 39.1106 46.4551C39.5361 46.5769 39.9696 46.6772 40.3986 46.7874C40.6135 46.8438 40.8312 46.8877 41.0479 46.937C41.2647 46.9862 41.4814 47.0355 41.7009 47.0776C42.582 47.2556 43.4781 47.3495 44.3771 47.3579C45.841 47.3773 47.2952 47.1202 48.6637 46.6002C49.0613 47.2847 49.5976 47.8783 50.2383 48.3431L50.3592 48.4246L50.4935 48.3664C51.3963 47.9761 52.2453 47.4719 53.0202 46.8662C53.3489 47.3042 54.1371 48.2464 55.2593 48.9137C55.3007 48.9386 55.3481 48.9516 55.3964 48.9513C55.5448 48.9509 55.6648 48.8303 55.6643 48.6819C55.6641 48.5879 55.6148 48.5009 55.5343 48.4524C54.4855 47.8255 53.7331 46.9173 53.4376 46.5241C53.683 46.3127 53.9221 46.0915 54.1541 45.8586L54.3457 45.6642L54.1487 45.4761C54.1397 45.4672 53.2799 44.6378 52.7371 43.7851C52.7622 43.7565 52.7891 43.7287 52.8142 43.6956C53.1138 43.3551 53.3917 42.9962 53.6462 42.6208C54.1574 41.8758 54.5713 41.0685 54.8778 40.2186C55.0289 39.7896 55.1486 39.3502 55.236 38.9038C55.32 38.4599 55.3756 38.0112 55.4026 37.5603C55.4268 37.1093 55.4268 36.6572 55.4026 36.2061L55.3766 35.8684L55.3632 35.7001L55.3435 35.5326L55.3023 35.1967L55.2486 34.8626C55.2324 34.7507 55.2109 34.6405 55.1877 34.5294L55.1196 34.198L55.0381 33.8702L54.9969 33.7054L54.9494 33.5433L54.8536 33.2191L54.7434 32.8984C54.6753 32.6835 54.5831 32.4766 54.5025 32.2652C54.1516 31.4296 53.6972 30.6412 53.15 29.9186C52.594 29.2004 51.9414 28.5623 51.2109 28.0225C50.4787 27.4869 49.6753 27.0561 48.824 26.7426C48.6109 26.6674 48.4004 26.5832 48.1827 26.525C47.9651 26.4667 47.7474 26.3942 47.537 26.3404L46.7604 26.1327C46.9056 25.7243 47.0836 25.3284 47.2925 24.9486C47.5128 24.5617 47.3202 24.1264 46.9342 23.9052C46.5482 23.6839 46.1129 23.7628 45.8925 24.1488C45.6189 24.6468 45.3877 25.167 45.2011 25.7036L44.6897 25.5603C44.8363 25.1447 45.0161 24.7416 45.2271 24.3548C45.4483 23.9679 45.2557 23.5326 44.8688 23.3113C44.4819 23.0901 44.0484 23.1689 43.8272 23.555C43.5525 24.0559 43.3203 24.579 43.133 25.1188L42.6512 24.9799C42.7994 24.5595 42.9816 24.1519 43.1957 23.761C43.4161 23.374 43.2235 22.9387 42.8375 22.7175C42.4514 22.4963 42.0161 22.5751 41.7958 22.9611C41.5203 23.4624 41.2878 23.9861 41.1008 24.5267C37.7448 23.5272 34.4066 22.4667 31.1026 21.3024C30.4953 21.091 29.889 20.876 29.2835 20.6575C29.5146 20.1712 30.5374 18.1765 32.4434 16.5554C32.5566 16.4595 32.5707 16.2899 32.4748 16.1767C32.4407 16.1364 32.3955 16.1071 32.3448 16.0923L30.507 15.555C31.6821 14.6038 33.1742 13.8013 35.0049 13.5352C35.1526 13.5206 35.2605 13.389 35.2458 13.2413C35.2311 13.0936 35.0995 12.9858 34.9518 13.0005C34.9435 13.0013 34.9353 13.0025 34.927 13.0041C32.7425 13.3203 31.0327 14.3575 29.786 15.452C29.7697 15.4632 29.755 15.4764 29.7421 15.4914C29.3246 15.8619 28.9324 16.2598 28.5679 16.6826C27.7853 17.5834 27.1274 18.5854 26.6118 19.6615C24.8079 18.9701 23.0208 18.2372 21.2504 17.4627C21.1722 17.428 21.0806 17.4632 21.0459 17.5414C21.0289 17.5795 21.0281 17.6228 21.0435 17.6615C21.0585 17.6997 21.0877 17.7305 21.125 17.7475ZM53.5791 45.6687C52.6596 46.5614 51.5912 47.2864 50.4219 47.8111C49.923 47.4153 49.4985 46.9341 49.168 46.3897C49.3184 46.3216 49.4671 46.2518 49.6158 46.1765C50.4233 45.7675 51.1757 45.2577 51.8549 44.6593C52.026 44.5053 52.1935 44.3485 52.3556 44.1864C52.7204 44.7145 53.1297 45.2104 53.5791 45.6687ZM46.2696 24.4121C46.3431 24.2831 46.4487 24.2948 46.5777 24.3682C46.7067 24.4417 46.8097 24.5473 46.7363 24.6781C46.5094 25.0908 46.3165 25.5212 46.1595 25.9652L45.6373 25.821C45.8091 25.3348 46.0205 24.8636 46.2696 24.4121ZM44.2096 23.8183C44.283 23.6893 44.3887 23.701 44.5186 23.7744C44.6485 23.8478 44.7497 23.9535 44.6762 24.0843C44.4472 24.5026 44.2525 24.9387 44.0941 25.3884L43.5746 25.2406C43.7449 24.7499 43.9555 24.2743 44.2042 23.8183H44.2096ZM42.1783 23.2245C42.2517 23.0955 42.3574 23.1071 42.4864 23.1806C42.6153 23.254 42.7183 23.3597 42.6449 23.4905C42.4128 23.9111 42.2154 24.3499 42.0547 24.8026L41.537 24.6512C41.7097 24.1588 41.9231 23.6816 42.1747 23.2245H42.1783ZM30.0251 15.9696L31.7322 16.4676C30.5068 17.6058 29.5045 18.9627 28.7766 20.4685C28.2224 20.2661 27.6695 20.0604 27.1178 19.8514C27.8385 18.3909 28.8229 17.076 30.0215 15.9732L30.0251 15.9696Z" fill="#04294F"/>
<path d="M13.8663 36.713C13.8095 36.7359 13.7544 36.7628 13.7015 36.7937C13.6469 36.8237 13.5951 36.8584 13.5466 36.8975C13.4416 36.9765 13.3566 37.0789 13.2985 37.1967C13.2623 37.2632 13.2867 37.3464 13.3532 37.3826C13.3982 37.4072 13.4531 37.4046 13.4955 37.3758L13.5197 37.3606C13.6717 37.2687 13.8393 37.2056 14.0141 37.1743C14.1991 37.1372 14.387 37.1159 14.5757 37.1107C14.7656 37.1041 14.9557 37.1119 15.1444 37.134C15.3328 37.1559 15.518 37.1997 15.6961 37.2648H15.706C15.7784 37.2914 15.8587 37.2541 15.8853 37.1817C15.9026 37.1346 15.8933 37.082 15.8609 37.0435C15.6982 36.8626 15.4883 36.7308 15.2546 36.6629C15.0291 36.5936 14.7934 36.5634 14.5578 36.5733C14.3209 36.579 14.0868 36.6263 13.8663 36.713Z" fill="#FFB400"/>
<path fill-rule="evenodd" clip-rule="evenodd" d="M0.487061 12C3.64803 16.2356 8.76527 16.9282 11.2443 16.9998C11.5171 17.0072 11.7443 16.795 11.7518 16.5259C11.7555 16.3907 11.7022 16.26 11.6045 16.1652C10.3806 14.9528 10.0038 13.2501 9.9803 11.6568C8.68741 11.8824 7.35741 12 5.99995 12H0.487061Z" fill="#FF5252"/>
</svg>
