<svg width="20" height="20" viewBox="0 0 20 20" fill="none" xmlns="http://www.w3.org/2000/svg">
<path d="M0.735235 15.2209C0.32918 15.2209 0 15.5501 0 15.9562V18.3203C0 18.7264 0.32918 19.0556 0.735235 19.0556H9.19621V15.2209H0.735235Z" fill="#CBCBCB"/>
<path d="M19.2648 15.2209H10.8179V19.0556H19.2648C19.6708 19.0556 20 18.7264 20 18.3203V15.9562C20 15.5501 19.6708 15.2209 19.2648 15.2209Z" fill="#CBCBCB"/>
<path d="M19.2648 9.76538H10.8179V13.5994H19.2648C19.6708 13.5994 20 13.2702 20 12.8642V10.5006C20 10.0946 19.6708 9.76538 19.2648 9.76538Z" fill="#CBCBCB"/>
<path d="M0.735235 9.76538C0.32918 9.76538 0 10.0946 0 10.5006V12.8642C0 13.2702 0.32918 13.5994 0.735235 13.5994H9.19621V9.76538H0.735235Z" fill="#CBCBCB"/>
<path d="M19.2648 0.94458C18.6497 0.94458 1.63875 0.94458 0.735234 0.94458C0.32918 0.94458 0 1.27376 0 1.67981V7.26895C0 7.67501 0.32918 8.00419 0.735234 8.00419C1.5432 8.00419 18.4522 8.00419 19.2648 8.00419C19.6708 8.00419 20 7.67501 20 7.26895V1.67981C20 1.27376 19.6708 0.94458 19.2648 0.94458Z" fill="#CBCBCB"/>
</svg>
