<svg width="17" height="17" viewBox="0 0 17 17" fill="none" xmlns="http://www.w3.org/2000/svg">
<path d="M15.4819 15.1785C15.8641 15.1785 16.1952 15.0523 16.4767 14.8032L11.6603 9.98665C11.5447 10.0694 11.4327 10.1499 11.3269 10.2264C10.9665 10.4919 10.674 10.6992 10.4493 10.8476C10.2247 10.9965 9.9259 11.1482 9.55288 11.303C9.1796 11.4581 8.83185 11.5354 8.50926 11.5354H8.49981H8.49037C8.16774 11.5354 7.81999 11.4581 7.44675 11.303C7.0735 11.1482 6.77467 10.9965 6.55029 10.8476C6.32569 10.6992 6.03331 10.492 5.67269 10.2264C5.57219 10.1527 5.46074 10.0719 5.34025 9.98535L0.522949 14.8032C0.804402 15.0523 1.13573 15.1785 1.51783 15.1785H15.4819Z" fill="#FFC738"/>
<path d="M0.958249 6.95361C0.597845 6.71333 0.278243 6.43815 0 6.12817V13.4562L4.24513 9.21104C3.39586 8.61813 2.30163 7.86652 0.958249 6.95361Z" fill="#FFC738"/>
<path d="M16.0514 6.95361C14.7592 7.82819 13.661 8.5811 12.7566 9.21274L17.0001 13.4564V6.12817C16.728 6.43191 16.4118 6.70691 16.0514 6.95361Z" fill="#FFC738"/>
<path d="M15.4821 1.82129H1.518C1.03084 1.82129 0.656299 1.9858 0.393921 2.31447C0.131326 2.6433 0.000244141 3.05454 0.000244141 3.54772C0.000244141 3.94609 0.174196 4.37773 0.521946 4.84277C0.869696 5.30762 1.23973 5.67274 1.63186 5.93833C1.84683 6.09022 2.49511 6.5409 3.5767 7.29023C4.16056 7.69483 4.66831 8.04749 5.10464 8.35181C5.47656 8.61095 5.7973 8.83537 6.06212 9.0216C6.09252 9.04293 6.14033 9.07713 6.20379 9.1225C6.27215 9.1716 6.35867 9.23392 6.4654 9.31099C6.67092 9.45963 6.84166 9.57979 6.97765 9.67158C7.11346 9.7634 7.278 9.86596 7.47102 9.97985C7.66389 10.0936 7.84581 10.1791 8.01655 10.236C8.18732 10.2928 8.34541 10.3214 8.49085 10.3214H8.50029H8.50973C8.65514 10.3214 8.81326 10.2928 8.98406 10.236C9.15477 10.1791 9.33653 10.0938 9.52956 9.97985C9.7224 9.86596 9.88672 9.76318 10.023 9.67158C10.1589 9.57979 10.3297 9.45966 10.5352 9.31099C10.6418 9.23392 10.7283 9.17157 10.7966 9.12265C10.8601 9.0771 10.9079 9.04311 10.9385 9.0216C11.1448 8.87805 11.4663 8.65456 11.8985 8.35443C12.685 7.80798 13.8433 7.00368 15.3782 5.93833C15.8399 5.61589 16.2255 5.22678 16.5355 4.77156C16.8449 4.31634 17.0001 3.83884 17.0001 3.3392C17.0001 2.92176 16.8497 2.56457 16.5495 2.26706C16.249 1.96993 15.8932 1.82129 15.4821 1.82129Z" fill="#FFC738"/>
</svg>
