<svg width="16" height="16" viewBox="0 0 16 16" fill="none" xmlns="http://www.w3.org/2000/svg">
<path d="M13.6657 1.81128H13.1978V13.305C13.1978 14.0686 12.5763 14.6901 11.8127 14.6901H7.07252H3.3031V15.1162C3.3031 15.6041 3.69909 16.0001 4.18698 16.0001H8.92549H13.664C14.1519 16.0001 14.5479 15.6041 14.5479 15.1162V2.69516C14.5479 2.20727 14.1536 1.81128 13.6657 1.81128Z" fill="#4EB03E"/>
<path d="M7.07262 14.1888H11.8111C12.299 14.1888 12.695 13.7928 12.695 13.3049V1.81119V0.883876C12.695 0.39599 12.299 0 11.8111 0H7.07262H5.49702V0.292398C5.50034 0.322473 5.50203 0.354219 5.50203 0.385965V2.31245V2.80702C5.50203 3.49373 4.94397 4.0518 4.25725 4.0518H3.76268H1.8362C1.81114 4.0518 1.7844 4.05013 1.75934 4.04845H1.4519V13.3049C1.4519 13.7928 1.84789 14.1888 2.33578 14.1888H3.30487H7.07262ZM7.2514 11.1846H4.16201C3.93144 11.1846 3.7443 10.9975 3.7443 10.7669C3.7443 10.5363 3.93144 10.3492 4.16201 10.3492H7.25307C7.48365 10.3492 7.67079 10.5363 7.67079 10.7669C7.67079 10.9975 7.48198 11.1846 7.2514 11.1846ZM10.3425 9.05265H4.16201C3.93144 9.05265 3.7443 8.8655 3.7443 8.63494C3.7443 8.40434 3.93144 8.21723 4.16201 8.21723H10.3425C10.573 8.21723 10.7602 8.40434 10.7602 8.63494C10.7602 8.8655 10.573 9.05265 10.3425 9.05265ZM4.16201 5.95322H10.3425C10.573 5.95322 10.7602 6.14035 10.7602 6.37093C10.7602 6.6015 10.573 6.78864 10.3425 6.78864H4.16201C3.93144 6.78864 3.7443 6.6015 3.7443 6.37093C3.7443 6.14035 3.93144 5.95322 4.16201 5.95322Z" fill="#4EB03E"/>
<path d="M1.83615 3.5506H4.25719C4.25886 3.5506 4.2622 3.5506 4.26387 3.5506C4.66821 3.54726 4.9957 3.21978 4.99904 2.81543C4.99904 2.81376 4.99904 2.81042 4.99904 2.80875V0.386026C4.99904 0.162133 4.81525 0.0134277 4.62479 0.0134277C4.53289 0.0134277 4.441 0.0468446 4.36414 0.123703L1.57215 2.91568C1.33824 3.1496 1.50365 3.5506 1.83615 3.5506Z" fill="#4EB03E"/>
</svg>
