<svg width="302" height="140" viewBox="0 0 302 140" fill="none" xmlns="http://www.w3.org/2000/svg">
<rect width="302" height="140" rx="15" fill="white"/>
<path d="M47.04 85.44H49.792V82.608H51.648V85.44H54.4V87.136H51.648V89.968H49.792V87.136H47.04V85.44ZM55.5975 80.8H62.9575V82.496L59.1015 92H56.9575L60.8615 82.496H55.5975V80.8ZM71.685 92.144C71.205 92.144 70.7677 92.0747 70.373 91.936C69.989 91.7973 69.653 91.6053 69.365 91.36C69.077 91.104 68.837 90.8107 68.645 90.48C68.453 90.1387 68.3197 89.7653 68.245 89.36H70.213C70.3303 89.6267 70.5117 89.8613 70.757 90.064C71.0023 90.256 71.3383 90.352 71.765 90.352C72.0743 90.352 72.357 90.304 72.613 90.208C72.869 90.1013 73.0877 89.9307 73.269 89.696C73.4503 89.4507 73.5943 89.1413 73.701 88.768C73.8077 88.384 73.8717 87.9093 73.893 87.344C73.605 87.6533 73.2637 87.8933 72.869 88.064C72.4743 88.224 72.053 88.304 71.605 88.304C70.453 88.304 69.5517 87.9787 68.901 87.328C68.2503 86.6667 67.925 85.7493 67.925 84.576V84.384C67.925 83.84 68.0157 83.3387 68.197 82.88C68.3783 82.4213 68.6343 82.0267 68.965 81.696C69.3063 81.3653 69.7117 81.1093 70.181 80.928C70.661 80.7467 71.189 80.656 71.765 80.656C72.373 80.656 72.9223 80.7573 73.413 80.96C73.9037 81.152 74.325 81.4507 74.677 81.856C75.029 82.2507 75.2957 82.752 75.477 83.36C75.669 83.968 75.765 84.6827 75.765 85.504V86.336C75.765 87.392 75.669 88.288 75.477 89.024C75.285 89.76 75.0077 90.3627 74.645 90.832C74.293 91.2907 73.8663 91.6267 73.365 91.84C72.8637 92.0427 72.3037 92.144 71.685 92.144ZM71.765 86.512C72.3943 86.512 72.8797 86.3413 73.221 86C73.573 85.6587 73.749 85.184 73.749 84.576V84.384C73.749 83.776 73.573 83.3013 73.221 82.96C72.8797 82.6187 72.3943 82.448 71.765 82.448C71.221 82.448 70.7783 82.6187 70.437 82.96C70.1063 83.3013 69.941 83.776 69.941 84.384V84.576C69.941 85.184 70.1063 85.6587 70.437 86C70.7783 86.3413 71.221 86.512 71.765 86.512ZM81.2006 92.144C79.942 92.144 78.966 91.808 78.2726 91.136C77.5793 90.4533 77.222 89.488 77.2006 88.24H79.2166C79.238 88.976 79.414 89.5147 79.7446 89.856C80.0753 90.1867 80.5606 90.352 81.2006 90.352C81.862 90.352 82.358 90.2027 82.6886 89.904C83.0193 89.5947 83.1846 89.184 83.1846 88.672C83.1846 88.2133 83.0246 87.8347 82.7046 87.536C82.3953 87.2373 81.9313 87.088 81.3126 87.088H79.8406V85.392H81.3126C81.8246 85.392 82.2246 85.2587 82.5126 84.992C82.8006 84.7253 82.9446 84.3787 82.9446 83.952C82.9446 83.504 82.7953 83.1413 82.4966 82.864C82.2086 82.5867 81.7766 82.448 81.2006 82.448C80.134 82.448 79.5526 83.0453 79.4566 84.24H77.4406C77.462 83.12 77.798 82.2453 78.4486 81.616C79.11 80.976 80.0273 80.656 81.2006 80.656C81.8193 80.656 82.3633 80.736 82.8326 80.896C83.302 81.0453 83.6913 81.2587 84.0006 81.536C84.3206 81.8133 84.5606 82.1493 84.7206 82.544C84.8806 82.928 84.9606 83.3547 84.9606 83.824C84.9606 84.336 84.8486 84.8 84.6246 85.216C84.4006 85.632 84.054 85.968 83.5846 86.224C84.1286 86.4907 84.534 86.8533 84.8006 87.312C85.0673 87.76 85.2006 88.2613 85.2006 88.816C85.2006 89.3067 85.1153 89.76 84.9446 90.176C84.774 90.5813 84.518 90.9333 84.1766 91.232C83.846 91.52 83.43 91.744 82.9286 91.904C82.438 92.064 81.862 92.144 81.2006 92.144ZM86.4819 90.304L90.0979 86.832C90.4499 86.4907 90.7485 86.192 90.9939 85.936C91.2392 85.68 91.4312 85.4453 91.5699 85.232C91.7192 85.0187 91.8259 84.8213 91.8899 84.64C91.9539 84.4587 91.9859 84.272 91.9859 84.08C91.9859 83.5893 91.8312 83.1947 91.5219 82.896C91.2125 82.5973 90.7859 82.448 90.2419 82.448C89.6979 82.448 89.2712 82.6027 88.9619 82.912C88.6525 83.2213 88.4979 83.664 88.4979 84.24H86.4819C86.4819 83.696 86.5672 83.2053 86.7379 82.768C86.9085 82.32 87.1539 81.9413 87.4739 81.632C87.8045 81.3227 88.1992 81.0827 88.6579 80.912C89.1272 80.7413 89.6552 80.656 90.2419 80.656C90.8285 80.656 91.3512 80.7413 91.8099 80.912C92.2792 81.072 92.6739 81.3067 92.9939 81.616C93.3245 81.9147 93.5752 82.2773 93.7459 82.704C93.9165 83.12 94.0019 83.5787 94.0019 84.08C94.0019 84.7093 93.7992 85.328 93.3939 85.936C92.9885 86.544 92.3592 87.2373 91.5059 88.016L88.9939 90.304H94.0019V92H86.4819V90.304ZM103.439 92.144C102.777 92.144 102.196 92.064 101.695 91.904C101.204 91.744 100.788 91.52 100.447 91.232C100.116 90.944 99.8654 90.6027 99.6948 90.208C99.5241 89.8027 99.4388 89.3653 99.4388 88.896C99.4388 88.256 99.5988 87.712 99.9188 87.264C100.249 86.816 100.681 86.4533 101.215 86.176C100.767 85.92 100.409 85.5893 100.143 85.184C99.8868 84.7787 99.7588 84.288 99.7588 83.712C99.7588 83.2853 99.8441 82.8853 100.015 82.512C100.185 82.1387 100.431 81.8133 100.751 81.536C101.071 81.2587 101.455 81.0453 101.903 80.896C102.361 80.736 102.873 80.656 103.439 80.656C104.015 80.656 104.532 80.736 104.991 80.896C105.449 81.0453 105.833 81.2587 106.143 81.536C106.463 81.8027 106.703 82.1227 106.863 82.496C107.033 82.8693 107.119 83.2747 107.119 83.712C107.119 84.288 106.985 84.7787 106.719 85.184C106.452 85.5787 106.095 85.904 105.647 86.16C106.18 86.4373 106.612 86.8053 106.943 87.264C107.273 87.712 107.439 88.256 107.439 88.896C107.439 89.3547 107.348 89.7813 107.167 90.176C106.996 90.5707 106.74 90.9173 106.399 91.216C106.068 91.504 105.652 91.7333 105.151 91.904C104.66 92.064 104.089 92.144 103.439 92.144ZM103.439 90.352C103.759 90.352 104.041 90.3093 104.287 90.224C104.532 90.1387 104.735 90.0267 104.895 89.888C105.065 89.7493 105.193 89.5893 105.279 89.408C105.375 89.216 105.423 89.024 105.423 88.832C105.423 88.5547 105.369 88.3093 105.263 88.096C105.156 87.872 105.012 87.68 104.831 87.52C104.649 87.36 104.436 87.232 104.191 87.136C103.956 87.04 103.705 86.976 103.439 86.944C102.884 87.008 102.415 87.1947 102.031 87.504C101.647 87.8133 101.455 88.256 101.455 88.832C101.455 89.2373 101.625 89.5947 101.967 89.904C102.319 90.2027 102.809 90.352 103.439 90.352ZM103.439 85.424C103.663 85.392 103.876 85.3387 104.079 85.264C104.281 85.1893 104.457 85.088 104.607 84.96C104.756 84.832 104.873 84.6773 104.959 84.496C105.055 84.304 105.103 84.0693 105.103 83.792C105.103 83.632 105.06 83.472 104.975 83.312C104.9 83.152 104.788 83.008 104.639 82.88C104.5 82.752 104.329 82.6507 104.127 82.576C103.924 82.4907 103.695 82.448 103.439 82.448C103.183 82.448 102.948 82.4907 102.735 82.576C102.532 82.6507 102.356 82.752 102.207 82.88C102.068 83.008 101.961 83.152 101.887 83.312C101.812 83.472 101.775 83.632 101.775 83.792C101.775 84.048 101.823 84.272 101.919 84.464C102.015 84.656 102.137 84.816 102.287 84.944C102.447 85.072 102.623 85.1787 102.815 85.264C103.017 85.3387 103.225 85.392 103.439 85.424ZM108.396 87.952L113.068 80.8H115.596V87.952H116.876V89.648H115.596V92H113.676V89.648H108.396V87.952ZM113.676 87.952V82.928L110.46 87.952H113.676ZM121.763 92.144C121.283 92.144 120.846 92.0747 120.451 91.936C120.067 91.7973 119.731 91.6053 119.443 91.36C119.155 91.104 118.915 90.8107 118.723 90.48C118.531 90.1387 118.398 89.7653 118.323 89.36H120.291C120.408 89.6267 120.59 89.8613 120.835 90.064C121.08 90.256 121.416 90.352 121.843 90.352C122.152 90.352 122.435 90.304 122.691 90.208C122.947 90.1013 123.166 89.9307 123.347 89.696C123.528 89.4507 123.672 89.1413 123.779 88.768C123.886 88.384 123.95 87.9093 123.971 87.344C123.683 87.6533 123.342 87.8933 122.947 88.064C122.552 88.224 122.131 88.304 121.683 88.304C120.531 88.304 119.63 87.9787 118.979 87.328C118.328 86.6667 118.003 85.7493 118.003 84.576V84.384C118.003 83.84 118.094 83.3387 118.275 82.88C118.456 82.4213 118.712 82.0267 119.043 81.696C119.384 81.3653 119.79 81.1093 120.259 80.928C120.739 80.7467 121.267 80.656 121.843 80.656C122.451 80.656 123 80.7573 123.491 80.96C123.982 81.152 124.403 81.4507 124.755 81.856C125.107 82.2507 125.374 82.752 125.555 83.36C125.747 83.968 125.843 84.6827 125.843 85.504V86.336C125.843 87.392 125.747 88.288 125.555 89.024C125.363 89.76 125.086 90.3627 124.723 90.832C124.371 91.2907 123.944 91.6267 123.443 91.84C122.942 92.0427 122.382 92.144 121.763 92.144ZM121.843 86.512C122.472 86.512 122.958 86.3413 123.299 86C123.651 85.6587 123.827 85.184 123.827 84.576V84.384C123.827 83.776 123.651 83.3013 123.299 82.96C122.958 82.6187 122.472 82.448 121.843 82.448C121.299 82.448 120.856 82.6187 120.515 82.96C120.184 83.3013 120.019 83.776 120.019 84.384V84.576C120.019 85.184 120.184 85.6587 120.515 86C120.856 86.3413 121.299 86.512 121.843 86.512ZM127.359 86.992H132.479V88.688H127.359V86.992ZM137.845 92.144C137.184 92.144 136.602 92.064 136.101 91.904C135.61 91.744 135.194 91.52 134.853 91.232C134.522 90.944 134.272 90.6027 134.101 90.208C133.93 89.8027 133.845 89.3653 133.845 88.896C133.845 88.256 134.005 87.712 134.325 87.264C134.656 86.816 135.088 86.4533 135.621 86.176C135.173 85.92 134.816 85.5893 134.549 85.184C134.293 84.7787 134.165 84.288 134.165 83.712C134.165 83.2853 134.25 82.8853 134.421 82.512C134.592 82.1387 134.837 81.8133 135.157 81.536C135.477 81.2587 135.861 81.0453 136.309 80.896C136.768 80.736 137.28 80.656 137.845 80.656C138.421 80.656 138.938 80.736 139.397 80.896C139.856 81.0453 140.24 81.2587 140.549 81.536C140.869 81.8027 141.109 82.1227 141.269 82.496C141.44 82.8693 141.525 83.2747 141.525 83.712C141.525 84.288 141.392 84.7787 141.125 85.184C140.858 85.5787 140.501 85.904 140.053 86.16C140.586 86.4373 141.018 86.8053 141.349 87.264C141.68 87.712 141.845 88.256 141.845 88.896C141.845 89.3547 141.754 89.7813 141.573 90.176C141.402 90.5707 141.146 90.9173 140.805 91.216C140.474 91.504 140.058 91.7333 139.557 91.904C139.066 92.064 138.496 92.144 137.845 92.144ZM137.845 90.352C138.165 90.352 138.448 90.3093 138.693 90.224C138.938 90.1387 139.141 90.0267 139.301 89.888C139.472 89.7493 139.6 89.5893 139.685 89.408C139.781 89.216 139.829 89.024 139.829 88.832C139.829 88.5547 139.776 88.3093 139.669 88.096C139.562 87.872 139.418 87.68 139.237 87.52C139.056 87.36 138.842 87.232 138.597 87.136C138.362 87.04 138.112 86.976 137.845 86.944C137.29 87.008 136.821 87.1947 136.437 87.504C136.053 87.8133 135.861 88.256 135.861 88.832C135.861 89.2373 136.032 89.5947 136.373 89.904C136.725 90.2027 137.216 90.352 137.845 90.352ZM137.845 85.424C138.069 85.392 138.282 85.3387 138.485 85.264C138.688 85.1893 138.864 85.088 139.013 84.96C139.162 84.832 139.28 84.6773 139.365 84.496C139.461 84.304 139.509 84.0693 139.509 83.792C139.509 83.632 139.466 83.472 139.381 83.312C139.306 83.152 139.194 83.008 139.045 82.88C138.906 82.752 138.736 82.6507 138.533 82.576C138.33 82.4907 138.101 82.448 137.845 82.448C137.589 82.448 137.354 82.4907 137.141 82.576C136.938 82.6507 136.762 82.752 136.613 82.88C136.474 83.008 136.368 83.152 136.293 83.312C136.218 83.472 136.181 83.632 136.181 83.792C136.181 84.048 136.229 84.272 136.325 84.464C136.421 84.656 136.544 84.816 136.693 84.944C136.853 85.072 137.029 85.1787 137.221 85.264C137.424 85.3387 137.632 85.392 137.845 85.424ZM147.123 92.144C146.643 92.144 146.205 92.0747 145.811 91.936C145.427 91.7973 145.091 91.6053 144.803 91.36C144.515 91.104 144.275 90.8107 144.083 90.48C143.891 90.1387 143.757 89.7653 143.683 89.36H145.651C145.768 89.6267 145.949 89.8613 146.195 90.064C146.44 90.256 146.776 90.352 147.203 90.352C147.512 90.352 147.795 90.304 148.051 90.208C148.307 90.1013 148.525 89.9307 148.707 89.696C148.888 89.4507 149.032 89.1413 149.139 88.768C149.245 88.384 149.309 87.9093 149.331 87.344C149.043 87.6533 148.701 87.8933 148.307 88.064C147.912 88.224 147.491 88.304 147.043 88.304C145.891 88.304 144.989 87.9787 144.339 87.328C143.688 86.6667 143.363 85.7493 143.363 84.576V84.384C143.363 83.84 143.453 83.3387 143.635 82.88C143.816 82.4213 144.072 82.0267 144.403 81.696C144.744 81.3653 145.149 81.1093 145.619 80.928C146.099 80.7467 146.627 80.656 147.203 80.656C147.811 80.656 148.36 80.7573 148.851 80.96C149.341 81.152 149.763 81.4507 150.115 81.856C150.467 82.2507 150.733 82.752 150.915 83.36C151.107 83.968 151.203 84.6827 151.203 85.504V86.336C151.203 87.392 151.107 88.288 150.915 89.024C150.723 89.76 150.445 90.3627 150.083 90.832C149.731 91.2907 149.304 91.6267 148.803 91.84C148.301 92.0427 147.741 92.144 147.123 92.144ZM147.203 86.512C147.832 86.512 148.317 86.3413 148.659 86C149.011 85.6587 149.187 85.184 149.187 84.576V84.384C149.187 83.776 149.011 83.3013 148.659 82.96C148.317 82.6187 147.832 82.448 147.203 82.448C146.659 82.448 146.216 82.6187 145.875 82.96C145.544 83.3013 145.379 83.776 145.379 84.384V84.576C145.379 85.184 145.544 85.6587 145.875 86C146.216 86.3413 146.659 86.512 147.203 86.512ZM152.718 86.992H157.838V88.688H152.718V86.992ZM163.044 92.144C162.564 92.144 162.127 92.0747 161.732 91.936C161.348 91.7973 161.012 91.6053 160.724 91.36C160.436 91.104 160.196 90.8107 160.004 90.48C159.812 90.1387 159.679 89.7653 159.604 89.36H161.572C161.69 89.6267 161.871 89.8613 162.116 90.064C162.362 90.256 162.698 90.352 163.124 90.352C163.434 90.352 163.716 90.304 163.972 90.208C164.228 90.1013 164.447 89.9307 164.628 89.696C164.81 89.4507 164.954 89.1413 165.06 88.768C165.167 88.384 165.231 87.9093 165.252 87.344C164.964 87.6533 164.623 87.8933 164.228 88.064C163.834 88.224 163.412 88.304 162.964 88.304C161.812 88.304 160.911 87.9787 160.26 87.328C159.61 86.6667 159.284 85.7493 159.284 84.576V84.384C159.284 83.84 159.375 83.3387 159.556 82.88C159.738 82.4213 159.994 82.0267 160.324 81.696C160.666 81.3653 161.071 81.1093 161.54 80.928C162.02 80.7467 162.548 80.656 163.124 80.656C163.732 80.656 164.282 80.7573 164.772 80.96C165.263 81.152 165.684 81.4507 166.036 81.856C166.388 82.2507 166.655 82.752 166.836 83.36C167.028 83.968 167.124 84.6827 167.124 85.504V86.336C167.124 87.392 167.028 88.288 166.836 89.024C166.644 89.76 166.367 90.3627 166.004 90.832C165.652 91.2907 165.226 91.6267 164.724 91.84C164.223 92.0427 163.663 92.144 163.044 92.144ZM163.124 86.512C163.754 86.512 164.239 86.3413 164.58 86C164.932 85.6587 165.108 85.184 165.108 84.576V84.384C165.108 83.776 164.932 83.3013 164.58 82.96C164.239 82.6187 163.754 82.448 163.124 82.448C162.58 82.448 162.138 82.6187 161.796 82.96C161.466 83.3013 161.3 83.776 161.3 84.384V84.576C161.3 85.184 161.466 85.6587 161.796 86C162.138 86.3413 162.58 86.512 163.124 86.512ZM169.36 80.8H175.84V82.496H171.072L170.88 84.992C171.424 84.576 172.091 84.368 172.88 84.368C173.424 84.368 173.92 84.4587 174.368 84.64C174.827 84.8213 175.216 85.0827 175.536 85.424C175.856 85.7653 176.107 86.176 176.288 86.656C176.469 87.136 176.56 87.6693 176.56 88.256C176.56 88.8427 176.469 89.376 176.288 89.856C176.107 90.336 175.84 90.7467 175.488 91.088C175.147 91.4187 174.725 91.68 174.224 91.872C173.733 92.0533 173.179 92.144 172.56 92.144C172.048 92.144 171.568 92.08 171.12 91.952C170.672 91.8133 170.272 91.616 169.92 91.36C169.579 91.104 169.291 90.7947 169.056 90.432C168.821 90.0587 168.656 89.632 168.56 89.152H170.576C170.736 89.5467 170.987 89.8453 171.328 90.048C171.68 90.2507 172.091 90.352 172.56 90.352C173.168 90.352 173.648 90.1707 174 89.808C174.363 89.4453 174.544 88.928 174.544 88.256C174.544 87.584 174.363 87.0667 174 86.704C173.648 86.3413 173.168 86.16 172.56 86.16C172.144 86.16 171.776 86.2453 171.456 86.416C171.147 86.5867 170.907 86.8 170.736 87.056H168.88L169.36 80.8Z" fill="#444444"/>
<path d="M46.26 109.213L48.158 107.9H49.38V117H48.158V109.252L46.26 110.539V109.213ZM54.2499 117.104C53.2793 117.104 52.5209 116.84 51.9749 116.311C51.4376 115.782 51.1559 115.037 51.1299 114.075H52.4039C52.4733 115.314 53.0886 115.934 54.2499 115.934C54.8653 115.934 55.3246 115.795 55.6279 115.518C55.9399 115.232 56.0959 114.855 56.0959 114.387C56.0959 113.936 55.9443 113.572 55.6409 113.295C55.3463 113.018 54.9216 112.879 54.3669 112.879H53.1449V111.761H54.3669C54.8609 111.761 55.2379 111.635 55.4979 111.384C55.7666 111.124 55.9009 110.786 55.9009 110.37C55.9009 109.945 55.7623 109.607 55.4849 109.356C55.2076 109.096 54.7959 108.966 54.2499 108.966C53.7559 108.966 53.3659 109.105 53.0799 109.382C52.8026 109.651 52.6423 110.045 52.5989 110.565H51.3249C51.3509 109.698 51.6153 109.022 52.1179 108.537C52.6293 108.043 53.3399 107.796 54.2499 107.796C54.7179 107.796 55.1339 107.861 55.4979 107.991C55.8619 108.112 56.1653 108.286 56.4079 108.511C56.6593 108.728 56.8499 108.996 56.9799 109.317C57.1099 109.629 57.1749 109.971 57.1749 110.344C57.1749 110.777 57.0796 111.163 56.8889 111.501C56.6983 111.839 56.4123 112.108 56.0309 112.307C56.4729 112.515 56.8066 112.801 57.0319 113.165C57.2573 113.529 57.3699 113.945 57.3699 114.413C57.3699 114.812 57.3006 115.176 57.1619 115.505C57.0319 115.834 56.8326 116.12 56.5639 116.363C56.3039 116.597 55.9789 116.779 55.5889 116.909C55.1989 117.039 54.7526 117.104 54.2499 117.104ZM59.7109 112.216C59.4423 112.216 59.2213 112.129 59.0479 111.956C58.8833 111.774 58.8009 111.557 58.8009 111.306C58.8009 111.055 58.8833 110.842 59.0479 110.669C59.2213 110.487 59.4423 110.396 59.7109 110.396C59.9796 110.396 60.1963 110.487 60.3609 110.669C60.5343 110.842 60.6209 111.055 60.6209 111.306C60.6209 111.557 60.5343 111.774 60.3609 111.956C60.1963 112.129 59.9796 112.216 59.7109 112.216ZM59.7109 117.104C59.4423 117.104 59.2213 117.017 59.0479 116.844C58.8833 116.662 58.8009 116.445 58.8009 116.194C58.8009 115.943 58.8833 115.73 59.0479 115.557C59.2213 115.375 59.4423 115.284 59.7109 115.284C59.9796 115.284 60.1963 115.375 60.3609 115.557C60.5343 115.73 60.6209 115.943 60.6209 116.194C60.6209 116.445 60.5343 116.662 60.3609 116.844C60.1963 117.017 59.9796 117.104 59.7109 117.104ZM65.3009 117.104C64.8243 117.104 64.3909 117.026 64.0009 116.87C63.6196 116.714 63.2946 116.467 63.0259 116.129C62.7573 115.782 62.5493 115.34 62.4019 114.803C62.2546 114.257 62.1809 113.598 62.1809 112.827V112.073C62.1809 111.31 62.2546 110.66 62.4019 110.123C62.5493 109.577 62.7573 109.135 63.0259 108.797C63.3033 108.45 63.6326 108.199 64.0139 108.043C64.4039 107.878 64.8329 107.796 65.3009 107.796C65.7776 107.796 66.2066 107.874 66.5879 108.03C66.9779 108.186 67.3073 108.437 67.5759 108.784C67.8446 109.122 68.0526 109.564 68.1999 110.11C68.3473 110.647 68.4209 111.302 68.4209 112.073V112.827C68.4209 113.59 68.3473 114.244 68.1999 114.79C68.0526 115.327 67.8403 115.769 67.5629 116.116C67.2943 116.454 66.9649 116.705 66.5749 116.87C66.1936 117.026 65.7689 117.104 65.3009 117.104ZM65.3009 115.934C65.5869 115.934 65.8426 115.886 66.0679 115.791C66.3019 115.687 66.4969 115.518 66.6529 115.284C66.8089 115.041 66.9303 114.721 67.0169 114.322C67.1036 113.923 67.1469 113.425 67.1469 112.827V112.073C67.1469 111.475 67.1036 110.981 67.0169 110.591C66.9303 110.192 66.8046 109.872 66.6399 109.629C66.4839 109.386 66.2889 109.217 66.0549 109.122C65.8296 109.018 65.5783 108.966 65.3009 108.966C65.0149 108.966 64.7549 109.018 64.5209 109.122C64.2956 109.217 64.1049 109.386 63.9489 109.629C63.7929 109.863 63.6716 110.179 63.5849 110.578C63.4983 110.977 63.4549 111.475 63.4549 112.073V112.827C63.4549 113.425 63.4983 113.923 63.5849 114.322C63.6716 114.712 63.7929 115.028 63.9489 115.271C64.1136 115.514 64.3086 115.687 64.5339 115.791C64.7679 115.886 65.0236 115.934 65.3009 115.934ZM69.7905 115.882L72.8975 112.879C73.4522 112.333 73.8552 111.887 74.1065 111.54C74.3665 111.185 74.4965 110.842 74.4965 110.513C74.4965 110.054 74.3405 109.681 74.0285 109.395C73.7165 109.109 73.3005 108.966 72.7805 108.966C72.2605 108.966 71.8445 109.113 71.5325 109.408C71.2205 109.694 71.0645 110.08 71.0645 110.565H69.7905C69.7905 110.158 69.8598 109.785 69.9985 109.447C70.1458 109.109 70.3495 108.819 70.6095 108.576C70.8695 108.325 71.1815 108.134 71.5455 108.004C71.9182 107.865 72.3298 107.796 72.7805 107.796C73.2312 107.796 73.6385 107.865 74.0025 108.004C74.3752 108.134 74.6915 108.32 74.9515 108.563C75.2115 108.806 75.4108 109.096 75.5495 109.434C75.6968 109.763 75.7705 110.123 75.7705 110.513C75.7705 110.998 75.6015 111.488 75.2635 111.982C74.9255 112.476 74.4358 113.022 73.7945 113.62L71.4025 115.882H75.7705V117H69.7905V115.882ZM78.043 112.216C77.7743 112.216 77.5533 112.129 77.38 111.956C77.2153 111.774 77.133 111.557 77.133 111.306C77.133 111.055 77.2153 110.842 77.38 110.669C77.5533 110.487 77.7743 110.396 78.043 110.396C78.3116 110.396 78.5283 110.487 78.693 110.669C78.8663 110.842 78.953 111.055 78.953 111.306C78.953 111.557 78.8663 111.774 78.693 111.956C78.5283 112.129 78.3116 112.216 78.043 112.216ZM78.043 117.104C77.7743 117.104 77.5533 117.017 77.38 116.844C77.2153 116.662 77.133 116.445 77.133 116.194C77.133 115.943 77.2153 115.73 77.38 115.557C77.5533 115.375 77.7743 115.284 78.043 115.284C78.3116 115.284 78.5283 115.375 78.693 115.557C78.8663 115.73 78.953 115.943 78.953 116.194C78.953 116.445 78.8663 116.662 78.693 116.844C78.5283 117.017 78.3116 117.104 78.043 117.104ZM83.373 117.104C82.4023 117.104 81.644 116.84 81.098 116.311C80.5606 115.782 80.279 115.037 80.253 114.075H81.527C81.5963 115.314 82.2116 115.934 83.373 115.934C83.9883 115.934 84.4476 115.795 84.751 115.518C85.063 115.232 85.219 114.855 85.219 114.387C85.219 113.936 85.0673 113.572 84.764 113.295C84.4693 113.018 84.0446 112.879 83.49 112.879H82.268V111.761H83.49C83.984 111.761 84.361 111.635 84.621 111.384C84.8896 111.124 85.024 110.786 85.024 110.37C85.024 109.945 84.8853 109.607 84.608 109.356C84.3306 109.096 83.919 108.966 83.373 108.966C82.879 108.966 82.489 109.105 82.203 109.382C81.9256 109.651 81.7653 110.045 81.722 110.565H80.448C80.474 109.698 80.7383 109.022 81.241 108.537C81.7523 108.043 82.463 107.796 83.373 107.796C83.841 107.796 84.257 107.861 84.621 107.991C84.985 108.112 85.2883 108.286 85.531 108.511C85.7823 108.728 85.973 108.996 86.103 109.317C86.233 109.629 86.298 109.971 86.298 110.344C86.298 110.777 86.2026 111.163 86.012 111.501C85.8213 111.839 85.5353 112.108 85.154 112.307C85.596 112.515 85.9296 112.801 86.155 113.165C86.3803 113.529 86.493 113.945 86.493 114.413C86.493 114.812 86.4236 115.176 86.285 115.505C86.155 115.834 85.9556 116.12 85.687 116.363C85.427 116.597 85.102 116.779 84.712 116.909C84.322 117.039 83.8756 117.104 83.373 117.104ZM87.469 113.841L91.499 107.9H93.085V113.841H94.229V114.959H93.085V117H91.863V114.959H87.469V113.841ZM91.863 113.841V109.265L88.808 113.841H91.863ZM96.1846 112.216C95.9159 112.216 95.6949 112.129 95.5216 111.956C95.3569 111.774 95.2746 111.557 95.2746 111.306C95.2746 111.055 95.3569 110.842 95.5216 110.669C95.6949 110.487 95.9159 110.396 96.1846 110.396C96.4532 110.396 96.6699 110.487 96.8346 110.669C97.0079 110.842 97.0946 111.055 97.0946 111.306C97.0946 111.557 97.0079 111.774 96.8346 111.956C96.6699 112.129 96.4532 112.216 96.1846 112.216ZM96.1846 117.104C95.9159 117.104 95.6949 117.017 95.5216 116.844C95.3569 116.662 95.2746 116.445 95.2746 116.194C95.2746 115.943 95.3569 115.73 95.5216 115.557C95.6949 115.375 95.9159 115.284 96.1846 115.284C96.4532 115.284 96.6699 115.375 96.8346 115.557C97.0079 115.73 97.0946 115.943 97.0946 116.194C97.0946 116.445 97.0079 116.662 96.8346 116.844C96.6699 117.017 96.4532 117.104 96.1846 117.104ZM101.515 117.104C100.544 117.104 99.7856 116.84 99.2396 116.311C98.7022 115.782 98.4206 115.037 98.3946 114.075H99.6686C99.7379 115.314 100.353 115.934 101.515 115.934C102.13 115.934 102.589 115.795 102.893 115.518C103.205 115.232 103.361 114.855 103.361 114.387C103.361 113.936 103.209 113.572 102.906 113.295C102.611 113.018 102.186 112.879 101.632 112.879H100.41V111.761H101.632C102.126 111.761 102.503 111.635 102.763 111.384C103.031 111.124 103.166 110.786 103.166 110.37C103.166 109.945 103.027 109.607 102.75 109.356C102.472 109.096 102.061 108.966 101.515 108.966C101.021 108.966 100.631 109.105 100.345 109.382C100.067 109.651 99.9069 110.045 99.8636 110.565H98.5896C98.6156 109.698 98.8799 109.022 99.3826 108.537C99.8939 108.043 100.605 107.796 101.515 107.796C101.983 107.796 102.399 107.861 102.763 107.991C103.127 108.112 103.43 108.286 103.673 108.511C103.924 108.728 104.115 108.996 104.245 109.317C104.375 109.629 104.44 109.971 104.44 110.344C104.44 110.777 104.344 111.163 104.154 111.501C103.963 111.839 103.677 112.108 103.296 112.307C103.738 112.515 104.071 112.801 104.297 113.165C104.522 113.529 104.635 113.945 104.635 114.413C104.635 114.812 104.565 115.176 104.427 115.505C104.297 115.834 104.097 116.12 103.829 116.363C103.569 116.597 103.244 116.779 102.854 116.909C102.464 117.039 102.017 117.104 101.515 117.104ZM106.586 107.9H111.591V109.018H107.704L107.496 111.514C107.972 111.107 108.566 110.903 109.277 110.903C109.693 110.903 110.078 110.977 110.434 111.124C110.789 111.271 111.097 111.484 111.357 111.761C111.617 112.03 111.816 112.355 111.955 112.736C112.102 113.109 112.176 113.529 112.176 113.997C112.176 114.465 112.102 114.894 111.955 115.284C111.807 115.665 111.595 115.99 111.318 116.259C111.049 116.528 110.724 116.736 110.343 116.883C109.961 117.03 109.532 117.104 109.056 117.104C108.267 117.104 107.591 116.905 107.028 116.506C106.464 116.107 106.1 115.527 105.936 114.764H107.21C107.357 115.154 107.587 115.449 107.899 115.648C108.211 115.839 108.596 115.934 109.056 115.934C109.628 115.934 110.078 115.765 110.408 115.427C110.737 115.089 110.902 114.612 110.902 113.997C110.902 113.39 110.737 112.918 110.408 112.58C110.078 112.242 109.628 112.073 109.056 112.073C108.666 112.073 108.328 112.151 108.042 112.307C107.764 112.463 107.552 112.654 107.405 112.879H106.196L106.586 107.9Z" fill="#444444"/>
<path d="M122.841 109.239L124.791 107.9H125.701V117H124.791V108.927L122.841 110.253V109.239ZM127.386 109.239L129.336 107.9H130.246V117H129.336V108.927L127.386 110.253V109.239ZM133.166 117.091C132.958 117.091 132.785 117.022 132.646 116.883C132.516 116.744 132.451 116.575 132.451 116.376C132.451 116.177 132.516 116.008 132.646 115.869C132.785 115.73 132.958 115.661 133.166 115.661C133.374 115.661 133.543 115.73 133.673 115.869C133.812 116.008 133.881 116.177 133.881 116.376C133.881 116.575 133.812 116.744 133.673 116.883C133.543 117.022 133.374 117.091 133.166 117.091ZM138.756 117.091C138.297 117.091 137.881 117.017 137.508 116.87C137.144 116.714 136.832 116.467 136.572 116.129C136.312 115.791 136.113 115.358 135.974 114.829C135.835 114.292 135.766 113.637 135.766 112.866V112.034C135.766 111.271 135.835 110.626 135.974 110.097C136.121 109.56 136.325 109.122 136.585 108.784C136.845 108.446 137.157 108.199 137.521 108.043C137.894 107.887 138.305 107.809 138.756 107.809C139.207 107.809 139.614 107.887 139.978 108.043C140.351 108.19 140.667 108.433 140.927 108.771C141.187 109.109 141.386 109.547 141.525 110.084C141.672 110.621 141.746 111.271 141.746 112.034V112.866C141.746 113.629 141.672 114.279 141.525 114.816C141.386 115.345 141.187 115.778 140.927 116.116C140.667 116.454 140.351 116.701 139.978 116.857C139.614 117.013 139.207 117.091 138.756 117.091ZM138.756 116.233C139.068 116.233 139.35 116.181 139.601 116.077C139.861 115.964 140.078 115.778 140.251 115.518C140.433 115.258 140.572 114.911 140.667 114.478C140.762 114.045 140.81 113.507 140.81 112.866V112.034C140.81 111.393 140.762 110.86 140.667 110.435C140.572 110.002 140.433 109.655 140.251 109.395C140.069 109.135 139.852 108.949 139.601 108.836C139.35 108.723 139.068 108.667 138.756 108.667C138.444 108.667 138.158 108.723 137.898 108.836C137.647 108.94 137.43 109.122 137.248 109.382C137.075 109.642 136.94 109.989 136.845 110.422C136.75 110.855 136.702 111.393 136.702 112.034V112.866C136.702 113.507 136.75 114.045 136.845 114.478C136.94 114.903 137.079 115.245 137.261 115.505C137.443 115.765 137.66 115.951 137.911 116.064C138.162 116.177 138.444 116.233 138.756 116.233ZM143.116 109.239L145.066 107.9H145.976V117H145.066V108.927L143.116 110.253V109.239ZM148.896 117.091C148.688 117.091 148.514 117.022 148.376 116.883C148.246 116.744 148.181 116.575 148.181 116.376C148.181 116.177 148.246 116.008 148.376 115.869C148.514 115.73 148.688 115.661 148.896 115.661C149.104 115.661 149.273 115.73 149.403 115.869C149.541 116.008 149.611 116.177 149.611 116.376C149.611 116.575 149.541 116.744 149.403 116.883C149.273 117.022 149.104 117.091 148.896 117.091ZM151.106 116.168L154.33 112.97C154.607 112.693 154.85 112.441 155.058 112.216C155.274 111.991 155.452 111.778 155.591 111.579C155.738 111.38 155.846 111.189 155.916 111.007C155.985 110.825 156.02 110.634 156.02 110.435C156.02 109.924 155.842 109.503 155.487 109.174C155.131 108.836 154.646 108.667 154.031 108.667C153.415 108.667 152.93 108.836 152.575 109.174C152.219 109.503 152.042 109.924 152.042 110.435H151.106C151.106 110.062 151.175 109.716 151.314 109.395C151.452 109.074 151.647 108.797 151.899 108.563C152.15 108.329 152.458 108.147 152.822 108.017C153.186 107.878 153.589 107.809 154.031 107.809C154.473 107.809 154.876 107.878 155.24 108.017C155.604 108.147 155.911 108.329 156.163 108.563C156.414 108.797 156.609 109.074 156.748 109.395C156.886 109.716 156.956 110.062 156.956 110.435C156.956 110.938 156.782 111.427 156.436 111.904C156.098 112.381 155.625 112.914 155.019 113.503L152.276 116.168H156.956V117H151.106V116.168ZM161.633 117.091C161.174 117.091 160.758 117.017 160.385 116.87C160.021 116.714 159.709 116.467 159.449 116.129C159.189 115.791 158.99 115.358 158.851 114.829C158.712 114.292 158.643 113.637 158.643 112.866V112.034C158.643 111.271 158.712 110.626 158.851 110.097C158.998 109.56 159.202 109.122 159.462 108.784C159.722 108.446 160.034 108.199 160.398 108.043C160.771 107.887 161.182 107.809 161.633 107.809C162.084 107.809 162.491 107.887 162.855 108.043C163.228 108.19 163.544 108.433 163.804 108.771C164.064 109.109 164.263 109.547 164.402 110.084C164.549 110.621 164.623 111.271 164.623 112.034V112.866C164.623 113.629 164.549 114.279 164.402 114.816C164.263 115.345 164.064 115.778 163.804 116.116C163.544 116.454 163.228 116.701 162.855 116.857C162.491 117.013 162.084 117.091 161.633 117.091ZM161.633 116.233C161.945 116.233 162.227 116.181 162.478 116.077C162.738 115.964 162.955 115.778 163.128 115.518C163.31 115.258 163.449 114.911 163.544 114.478C163.639 114.045 163.687 113.507 163.687 112.866V112.034C163.687 111.393 163.639 110.86 163.544 110.435C163.449 110.002 163.31 109.655 163.128 109.395C162.946 109.135 162.729 108.949 162.478 108.836C162.227 108.723 161.945 108.667 161.633 108.667C161.321 108.667 161.035 108.723 160.775 108.836C160.524 108.94 160.307 109.122 160.125 109.382C159.952 109.642 159.817 109.989 159.722 110.422C159.627 110.855 159.579 111.393 159.579 112.034V112.866C159.579 113.507 159.627 114.045 159.722 114.478C159.817 114.903 159.956 115.245 160.138 115.505C160.32 115.765 160.537 115.951 160.788 116.064C161.039 116.177 161.321 116.233 161.633 116.233ZM165.993 109.239L167.943 107.9H168.853V117H167.943V108.927L165.993 110.253V109.239ZM173.982 117.091C173.506 117.091 173.081 117.03 172.708 116.909C172.336 116.779 172.024 116.601 171.772 116.376C171.521 116.142 171.326 115.869 171.187 115.557C171.057 115.245 170.992 114.903 170.992 114.53C170.992 113.984 171.135 113.52 171.421 113.139C171.707 112.749 172.097 112.454 172.591 112.255C172.175 112.064 171.846 111.8 171.603 111.462C171.369 111.124 171.252 110.708 171.252 110.214C171.252 109.876 171.317 109.564 171.447 109.278C171.586 108.983 171.772 108.728 172.006 108.511C172.249 108.294 172.535 108.125 172.864 108.004C173.202 107.874 173.575 107.809 173.982 107.809C174.398 107.809 174.771 107.87 175.1 107.991C175.438 108.112 175.724 108.281 175.958 108.498C176.201 108.715 176.387 108.97 176.517 109.265C176.647 109.551 176.712 109.867 176.712 110.214C176.712 110.699 176.587 111.111 176.335 111.449C176.093 111.787 175.763 112.051 175.347 112.242C175.841 112.45 176.236 112.749 176.53 113.139C176.825 113.52 176.972 113.984 176.972 114.53C176.972 114.894 176.903 115.232 176.764 115.544C176.634 115.856 176.439 116.129 176.179 116.363C175.919 116.588 175.603 116.766 175.23 116.896C174.866 117.026 174.45 117.091 173.982 117.091ZM173.982 116.233C174.303 116.233 174.589 116.19 174.84 116.103C175.1 116.008 175.317 115.882 175.49 115.726C175.664 115.57 175.798 115.392 175.893 115.193C175.989 114.985 176.036 114.764 176.036 114.53C176.036 114.253 175.98 114.001 175.867 113.776C175.763 113.551 175.616 113.36 175.425 113.204C175.243 113.039 175.027 112.909 174.775 112.814C174.524 112.719 174.26 112.658 173.982 112.632C173.696 112.658 173.428 112.719 173.176 112.814C172.925 112.901 172.704 113.026 172.513 113.191C172.331 113.347 172.188 113.538 172.084 113.763C171.98 113.988 171.928 114.244 171.928 114.53C171.928 114.764 171.976 114.985 172.071 115.193C172.167 115.392 172.301 115.57 172.474 115.726C172.648 115.882 172.86 116.008 173.111 116.103C173.371 116.19 173.662 116.233 173.982 116.233ZM173.982 111.878C174.208 111.852 174.429 111.804 174.645 111.735C174.862 111.657 175.053 111.553 175.217 111.423C175.391 111.284 175.525 111.115 175.62 110.916C175.724 110.717 175.776 110.483 175.776 110.214C175.776 110.015 175.733 109.824 175.646 109.642C175.568 109.451 175.451 109.287 175.295 109.148C175.139 109.001 174.949 108.884 174.723 108.797C174.507 108.71 174.26 108.667 173.982 108.667C173.705 108.667 173.454 108.71 173.228 108.797C173.012 108.884 172.825 109.001 172.669 109.148C172.513 109.287 172.392 109.451 172.305 109.642C172.227 109.824 172.188 110.015 172.188 110.214C172.188 110.474 172.24 110.704 172.344 110.903C172.448 111.094 172.583 111.258 172.747 111.397C172.921 111.536 173.116 111.644 173.332 111.722C173.549 111.8 173.766 111.852 173.982 111.878Z" fill="#B6B6B6"/>
<path d="M32.9999 104C28.5817 104 25 107.582 25 112C25 116.418 28.5817 120 32.9999 120C37.418 120 41 116.418 41 112C41 107.582 37.418 104 32.9999 104ZM36.4584 113.521H33.0668C33.0553 113.521 33.0447 113.519 33.0333 113.518C33.0219 113.519 33.0113 113.521 32.9998 113.521C32.6943 113.521 32.4465 113.274 32.4465 112.968V107.32C32.4465 107.014 32.6943 106.767 32.9998 106.767C33.3054 106.767 33.5531 107.014 33.5531 107.32V112.415H36.4582C36.7638 112.415 37.0115 112.663 37.0115 112.968C37.0115 113.274 36.764 113.521 36.4584 113.521Z" fill="#D1D1D1"/>
<g clip-path="url(#clip0)">
<path d="M33.0001 90.6828C33.3452 90.6828 33.625 90.403 33.625 90.0578C33.625 89.7127 33.3452 89.4329 33.0001 89.4329C32.6549 89.4329 32.3751 89.7127 32.3751 90.0578C32.3751 90.403 32.6549 90.6828 33.0001 90.6828Z" fill="#D1D1D1"/>
<path d="M34.7435 81.6399H31.2565C31.061 81.6399 30.902 81.7915 30.902 81.9775V88.5691C30.902 88.7553 31.0609 88.9068 31.2565 88.9068H34.7435C34.939 88.9068 35.098 88.7551 35.098 88.5691V81.9775C35.0979 81.7914 34.939 81.6399 34.7435 81.6399Z" fill="#D1D1D1"/>
<path d="M33.0007 78C28.5826 78 25.001 81.5819 25.001 85.9998C25.001 90.4178 28.5826 94 33.0007 94C37.4188 94 41.0009 90.418 41.0009 85.9998C41.0009 81.5817 37.4188 78 33.0007 78ZM36.1131 89.9478C36.1131 90.5589 35.6177 91.0544 35.0065 91.0544H30.9951C30.384 91.0544 29.8885 90.5589 29.8885 89.9478V82.0172C29.8885 81.4061 30.384 80.9106 30.9951 80.9106H35.0065C35.6176 80.9106 36.1131 81.4061 36.1131 82.0172V89.9478Z" fill="#D1D1D1"/>
</g>
<path d="M33.944 34H27.016V36.4H25.16V32.304H26.088C26.28 32.0373 26.44 31.7547 26.568 31.456C26.7067 31.1573 26.8187 30.7947 26.904 30.368C27 29.9307 27.064 29.4027 27.096 28.784C27.1387 28.1653 27.16 27.3973 27.16 26.48V22.8H34.76V32.304H35.8V36.4H33.944V34ZM29.08 26.48C29.08 27.3013 29.064 28.016 29.032 28.624C29 29.232 28.952 29.7653 28.888 30.224C28.824 30.6827 28.7387 31.0773 28.632 31.408C28.5253 31.7387 28.3973 32.0373 28.248 32.304H32.84V24.496H29.08V26.48ZM36.6913 32.416H36.9313C37.0699 32.416 37.2086 32.3787 37.3473 32.304C37.4966 32.2187 37.6299 32.08 37.7473 31.888C37.8646 31.6853 37.9553 31.4133 38.0193 31.072C38.0939 30.7307 38.1313 30.2987 38.1313 29.776V26H44.2113V34H42.3553V27.632H39.9873V29.776C39.9873 30.5973 39.9126 31.2853 39.7633 31.84C39.6246 32.3947 39.4219 32.8427 39.1553 33.184C38.8993 33.5253 38.5793 33.7707 38.1953 33.92C37.8219 34.0693 37.4006 34.144 36.9313 34.144H36.6913V32.416ZM45.746 28.704C45.746 28.2773 45.81 27.8987 45.938 27.568C46.0767 27.2267 46.29 26.944 46.578 26.72C46.866 26.4853 47.2393 26.3093 47.698 26.192C48.1673 26.064 48.738 26 49.41 26H52.37V34H50.514V31.408H49.41C49.314 31.408 49.2233 31.408 49.138 31.408C49.0527 31.408 48.9673 31.4027 48.882 31.392L47.57 34H45.49L47.122 31.04C46.6313 30.816 46.2793 30.5067 46.066 30.112C45.8527 29.7173 45.746 29.248 45.746 28.704ZM47.698 28.704C47.698 29.0987 47.8207 29.3973 48.066 29.6C48.3113 29.8027 48.7593 29.904 49.41 29.904H50.514V27.504H49.41C48.7593 27.504 48.3113 27.6053 48.066 27.808C47.8207 28.0107 47.698 28.3093 47.698 28.704ZM61.8063 34.144C60.6009 34.144 59.6569 33.8027 58.9743 33.12C58.3023 32.4373 57.9663 31.4827 57.9663 30.256V29.744C57.9663 29.136 58.0516 28.592 58.2223 28.112C58.4036 27.632 58.6596 27.2267 58.9903 26.896C59.3316 26.5547 59.7369 26.2987 60.2063 26.128C60.6756 25.9467 61.2089 25.856 61.8063 25.856C63.0116 25.856 63.9503 26.1973 64.6223 26.88C65.3049 27.5627 65.6463 28.5173 65.6463 29.744V30.256C65.6463 30.864 65.5556 31.408 65.3743 31.888C65.2036 32.368 64.9476 32.7787 64.6063 33.12C64.2756 33.4507 63.8703 33.7067 63.3903 33.888C62.9209 34.0587 62.3929 34.144 61.8063 34.144ZM61.8063 32.416C62.4143 32.416 62.8783 32.24 63.1983 31.888C63.5289 31.536 63.6943 30.992 63.6943 30.256V29.744C63.6943 29.0187 63.5236 28.48 63.1823 28.128C62.8516 27.7653 62.3929 27.584 61.8063 27.584C61.1983 27.584 60.7289 27.76 60.3983 28.112C60.0783 28.464 59.9183 29.008 59.9183 29.744V30.256C59.9183 30.9813 60.0836 31.5253 60.4143 31.888C60.7556 32.24 61.2196 32.416 61.8063 32.416ZM72.5871 30.736H69.0991V34H67.2431V26H69.0991V29.104H72.5871V26H74.4431V34H72.5871V30.736ZM75.6444 32.416H75.8844C76.023 32.416 76.1617 32.3787 76.3004 32.304C76.4497 32.2187 76.583 32.08 76.7004 31.888C76.8177 31.6853 76.9084 31.4133 76.9724 31.072C77.047 30.7307 77.0844 30.2987 77.0844 29.776V26H83.1644V34H81.3084V27.632H78.9404V29.776C78.9404 30.5973 78.8657 31.2853 78.7164 31.84C78.5777 32.3947 78.375 32.8427 78.1084 33.184C77.8524 33.5253 77.5324 33.7707 77.1484 33.92C76.775 34.0693 76.3537 34.144 75.8844 34.144H75.6444V32.416ZM87.3231 34.144C86.4591 34.144 85.8031 33.9307 85.3551 33.504C84.9071 33.0773 84.6831 32.4853 84.6831 31.728C84.6831 31.312 84.7471 30.9387 84.8751 30.608C85.0138 30.2667 85.2271 29.984 85.5151 29.76C85.8138 29.5253 86.1925 29.3493 86.6511 29.232C87.1205 29.104 87.6911 29.04 88.3631 29.04H89.7071V28.56C89.7071 28.176 89.6005 27.888 89.3871 27.696C89.1845 27.4933 88.8431 27.392 88.3631 27.392C87.9151 27.392 87.5898 27.4773 87.3871 27.648C87.1845 27.8187 87.0618 28.0427 87.0191 28.32H85.0031C85.0458 27.6053 85.3338 27.0187 85.8671 26.56C86.4111 26.0907 87.2431 25.856 88.3631 25.856C89.4298 25.856 90.2298 26.1013 90.7631 26.592C91.2965 27.0827 91.5631 27.7387 91.5631 28.56V34H90.1071L89.9151 32.896C89.6378 33.3013 89.2751 33.6107 88.8271 33.824C88.3898 34.0373 87.8885 34.144 87.3231 34.144ZM87.6431 32.608C87.9418 32.608 88.2138 32.56 88.4591 32.464C88.7151 32.3573 88.9338 32.2187 89.1151 32.048C89.2965 31.8667 89.4405 31.664 89.5471 31.44C89.6538 31.216 89.7071 30.976 89.7071 30.72V30.48H88.3631C87.7231 30.48 87.2751 30.5867 87.0191 30.8C86.7631 31.0133 86.6351 31.3013 86.6351 31.664C86.6351 31.952 86.7205 32.1813 86.8911 32.352C87.0725 32.5227 87.3231 32.608 87.6431 32.608ZM98.8996 28.352L98.1796 29.84L95.8916 34H93.5556V26H95.4116V31.648L96.1316 30.16L98.4196 26H100.756V34H98.8996V28.352ZM97.1556 25.024C96.4196 25.024 95.849 24.8267 95.4436 24.432C95.0383 24.0373 94.8356 23.4933 94.8356 22.8H96.2756C96.2756 23.184 96.3556 23.472 96.5156 23.664C96.6863 23.8453 96.8996 23.936 97.1556 23.936C97.401 23.936 97.6143 23.8453 97.7956 23.664C97.977 23.472 98.0676 23.184 98.0676 22.8H99.4756C99.4756 23.4933 99.273 24.0373 98.8676 24.432C98.4623 24.8267 97.8916 25.024 97.1556 25.024ZM108.181 30.736H104.693V34H102.837V26H104.693V29.104H108.181V26H110.037V34H108.181V30.736ZM111.718 28.992H116.838V30.688H111.718V28.992ZM118.524 26H120.38V32.368H122.636V26H124.492V32.368H126.748V26H128.604V34H118.524V26ZM133.337 30.656H132.537V34H130.681V26H132.537V29.024H133.337L135.257 26H137.401L134.873 29.776L137.721 34H135.481L133.337 30.656ZM141.884 34.144C140.679 34.144 139.735 33.8027 139.052 33.12C138.38 32.4373 138.044 31.4827 138.044 30.256V29.744C138.044 29.136 138.13 28.592 138.3 28.112C138.482 27.632 138.738 27.2267 139.068 26.896C139.41 26.5547 139.815 26.2987 140.284 26.128C140.754 25.9467 141.287 25.856 141.884 25.856C143.09 25.856 144.028 26.1973 144.7 26.88C145.383 27.5627 145.724 28.5173 145.724 29.744V30.256C145.724 30.864 145.634 31.408 145.452 31.888C145.282 32.368 145.026 32.7787 144.684 33.12C144.354 33.4507 143.948 33.7067 143.468 33.888C142.999 34.0587 142.471 34.144 141.884 34.144ZM141.884 32.416C142.492 32.416 142.956 32.24 143.276 31.888C143.607 31.536 143.772 30.992 143.772 30.256V29.744C143.772 29.0187 143.602 28.48 143.26 28.128C142.93 27.7653 142.471 27.584 141.884 27.584C141.276 27.584 140.807 27.76 140.476 28.112C140.156 28.464 139.996 29.008 139.996 29.744V30.256C139.996 30.9813 140.162 31.5253 140.492 31.888C140.834 32.24 141.298 32.416 141.884 32.416ZM146.285 32.416H146.525C146.664 32.416 146.802 32.3787 146.941 32.304C147.09 32.2187 147.224 32.08 147.341 31.888C147.458 31.6853 147.549 31.4133 147.613 31.072C147.688 30.7307 147.725 30.2987 147.725 29.776V26H153.805V34H151.949V27.632H149.581V29.776C149.581 30.5973 149.506 31.2853 149.357 31.84C149.218 32.3947 149.016 32.8427 148.749 33.184C148.493 33.5253 148.173 33.7707 147.789 33.92C147.416 34.0693 146.994 34.144 146.525 34.144H146.285V32.416ZM155.884 26H157.74V28.4H158.924C160.15 28.4 161.041 28.6507 161.596 29.152C162.161 29.6533 162.444 30.336 162.444 31.2C162.444 32.064 162.161 32.7467 161.596 33.248C161.041 33.7493 160.15 34 158.924 34H155.884V26ZM163.308 26H165.164V34H163.308V26ZM157.74 29.92V32.48H159.004C159.516 32.48 159.889 32.368 160.124 32.144C160.369 31.92 160.492 31.6053 160.492 31.2C160.492 30.7947 160.369 30.48 160.124 30.256C159.889 30.032 159.516 29.92 159.004 29.92H157.74Z" fill="#444444"/>
<path d="M25 35.6H166.204V36.4H25V35.6Z" fill="#444444"/>
<path d="M232.13 28.366C232.13 28.954 232.027 29.4953 231.822 29.99C231.626 30.4847 231.332 30.9093 230.94 31.264C230.557 31.6093 230.086 31.88 229.526 32.076C228.966 32.272 228.327 32.37 227.608 32.37H227.538V33.112H226.222V32.37H226.138C225.41 32.37 224.766 32.272 224.206 32.076C223.646 31.88 223.175 31.6093 222.792 31.264C222.409 30.9093 222.12 30.4893 221.924 30.004C221.728 29.5093 221.63 28.9633 221.63 28.366V27.834C221.63 27.246 221.728 26.7047 221.924 26.21C222.129 25.7153 222.423 25.2953 222.806 24.95C223.189 24.5953 223.66 24.32 224.22 24.124C224.78 23.928 225.419 23.83 226.138 23.83H226.222V23.088H227.538V23.83H227.608C228.336 23.83 228.98 23.928 229.54 24.124C230.1 24.32 230.571 24.5953 230.954 24.95C231.346 25.2953 231.64 25.7153 231.836 26.21C232.032 26.7047 232.13 27.246 232.13 27.834V28.366ZM223.002 28.366C223.002 29.206 223.263 29.8733 223.786 30.368C224.318 30.8627 225.102 31.11 226.138 31.11H226.222V25.09H226.138C225.102 25.09 224.318 25.3373 223.786 25.832C223.263 26.3267 223.002 26.994 223.002 27.834V28.366ZM227.538 25.09V31.11H227.608C228.653 31.11 229.437 30.8627 229.96 30.368C230.492 29.8733 230.758 29.206 230.758 28.366V27.834C230.758 26.994 230.492 26.3267 229.96 25.832C229.437 25.3373 228.653 25.09 227.608 25.09H227.538ZM236.608 33.112C236.113 33.112 235.665 33.0373 235.264 32.888C234.872 32.7293 234.536 32.51 234.256 32.23C233.976 31.9407 233.761 31.5907 233.612 31.18C233.462 30.76 233.388 30.2887 233.388 29.766V29.234C233.388 28.7207 233.462 28.2587 233.612 27.848C233.77 27.428 233.99 27.0733 234.27 26.784C234.55 26.4947 234.886 26.2753 235.278 26.126C235.679 25.9673 236.122 25.888 236.608 25.888C237.093 25.888 237.532 25.9673 237.924 26.126C238.325 26.2753 238.666 26.4947 238.946 26.784C239.226 27.064 239.44 27.414 239.59 27.834C239.748 28.2447 239.828 28.7113 239.828 29.234V29.766C239.828 30.2887 239.748 30.7553 239.59 31.166C239.44 31.5767 239.226 31.9267 238.946 32.216C238.666 32.5053 238.325 32.7293 237.924 32.888C237.532 33.0373 237.093 33.112 236.608 33.112ZM236.608 31.908C237.196 31.908 237.658 31.7307 237.994 31.376C238.339 31.012 238.512 30.4753 238.512 29.766V29.234C238.512 28.534 238.339 28.002 237.994 27.638C237.658 27.274 237.196 27.092 236.608 27.092C236.02 27.092 235.553 27.274 235.208 27.638C234.872 27.9927 234.704 28.5247 234.704 29.234V29.766C234.704 30.466 234.872 30.998 235.208 31.362C235.553 31.726 236.02 31.908 236.608 31.908ZM244.893 33.112C243.969 33.112 243.26 32.8087 242.765 32.202V35.8H241.505V26H242.485L242.611 27.008C242.854 26.6347 243.171 26.3547 243.563 26.168C243.955 25.9813 244.403 25.888 244.907 25.888C245.299 25.888 245.663 25.9627 245.999 26.112C246.344 26.252 246.638 26.4667 246.881 26.756C247.124 27.036 247.315 27.386 247.455 27.806C247.595 28.2167 247.665 28.6927 247.665 29.234V29.766C247.665 30.3073 247.595 30.788 247.455 31.208C247.315 31.6187 247.119 31.9687 246.867 32.258C246.624 32.538 246.33 32.7527 245.985 32.902C245.649 33.042 245.285 33.112 244.893 33.112ZM244.557 31.908C245.117 31.908 245.556 31.7353 245.873 31.39C246.19 31.0447 246.349 30.5033 246.349 29.766V29.234C246.349 28.506 246.19 27.9693 245.873 27.624C245.556 27.2693 245.117 27.092 244.557 27.092C244.053 27.092 243.633 27.2647 243.297 27.61C242.961 27.9553 242.784 28.464 242.765 29.136V29.766C242.765 30.4567 242.933 30.9887 243.269 31.362C243.605 31.726 244.034 31.908 244.557 31.908ZM251.285 28.94L250.599 27.428V33H249.339V26H251.187L253.077 29.976L254.967 26H256.759V33H255.499V27.414L254.799 28.94L253.679 31.32H252.419L251.285 28.94ZM260.605 33.112C259.877 33.112 259.321 32.93 258.939 32.566C258.556 32.1927 258.365 31.684 258.365 31.04C258.365 30.6853 258.421 30.368 258.533 30.088C258.645 29.7987 258.822 29.556 259.065 29.36C259.317 29.164 259.634 29.0147 260.017 28.912C260.409 28.8093 260.885 28.758 261.445 28.758H262.845V28.24C262.845 27.848 262.728 27.5447 262.495 27.33C262.271 27.1153 261.921 27.008 261.445 27.008C260.969 27.008 260.623 27.0967 260.409 27.274C260.203 27.4513 260.082 27.68 260.045 27.96H258.645C258.682 27.3627 258.925 26.868 259.373 26.476C259.83 26.084 260.521 25.888 261.445 25.888C262.322 25.888 262.985 26.098 263.433 26.518C263.881 26.938 264.105 27.512 264.105 28.24V33H263.125L262.971 31.852C262.719 32.2533 262.387 32.566 261.977 32.79C261.575 33.0047 261.118 33.112 260.605 33.112ZM260.745 31.992C261.053 31.992 261.333 31.9407 261.585 31.838C261.846 31.7353 262.07 31.6 262.257 31.432C262.443 31.2547 262.588 31.0493 262.691 30.816C262.793 30.5827 262.845 30.3353 262.845 30.074V29.822H261.445C260.801 29.822 260.343 29.934 260.073 30.158C259.811 30.3727 259.681 30.6573 259.681 31.012C259.681 31.3107 259.774 31.5487 259.961 31.726C260.147 31.9033 260.409 31.992 260.745 31.992ZM272.568 33.112C271.523 33.112 270.706 32.8273 270.118 32.258C269.539 31.6887 269.236 30.886 269.208 29.85H270.58C270.655 31.1847 271.317 31.852 272.568 31.852C273.231 31.852 273.725 31.7027 274.052 31.404C274.388 31.096 274.556 30.69 274.556 30.186C274.556 29.7007 274.393 29.3087 274.066 29.01C273.749 28.7113 273.291 28.562 272.694 28.562H271.378V27.358H272.694C273.226 27.358 273.632 27.2227 273.912 26.952C274.201 26.672 274.346 26.308 274.346 25.86C274.346 25.4027 274.197 25.0387 273.898 24.768C273.599 24.488 273.156 24.348 272.568 24.348C272.036 24.348 271.616 24.4973 271.308 24.796C271.009 25.0853 270.837 25.51 270.79 26.07H269.418C269.446 25.1367 269.731 24.4087 270.272 23.886C270.823 23.354 271.588 23.088 272.568 23.088C273.072 23.088 273.52 23.158 273.912 23.298C274.304 23.4287 274.631 23.6153 274.892 23.858C275.163 24.0913 275.368 24.3807 275.508 24.726C275.648 25.062 275.718 25.4307 275.718 25.832C275.718 26.2987 275.615 26.714 275.41 27.078C275.205 27.442 274.897 27.7313 274.486 27.946C274.962 28.17 275.321 28.478 275.564 28.87C275.807 29.262 275.928 29.71 275.928 30.214C275.928 30.6433 275.853 31.0353 275.704 31.39C275.564 31.7447 275.349 32.0527 275.06 32.314C274.78 32.566 274.43 32.762 274.01 32.902C273.59 33.042 273.109 33.112 272.568 33.112Z" fill="#B6B6B6"/>
<path d="M221 34.4H276.698V35.1H221V34.4Z" fill="#B6B6B6"/>
<g clip-path="url(#clip1)">
<path d="M267.278 114.121L267.013 117.843C267.392 117.843 267.556 117.681 267.753 117.485L269.528 115.789L273.207 118.483C273.881 118.859 274.357 118.661 274.539 117.862L276.953 106.547L276.954 106.547C277.168 105.549 276.593 105.159 275.936 105.404L261.743 110.838C260.774 111.214 260.789 111.754 261.578 111.999L265.207 113.127L273.635 107.853C274.032 107.591 274.393 107.736 274.096 107.999L267.278 114.121Z" fill="#039BE5"/>
</g>
<defs>
<clipPath id="clip0">
<rect x="25" y="78" width="16" height="16" fill="white"/>
</clipPath>
<clipPath id="clip1">
<rect x="261" y="104" width="16" height="16" fill="white"/>
</clipPath>
</defs>
</svg>
