<svg width="50" height="50" viewBox="0 0 50 50" fill="none" xmlns="http://www.w3.org/2000/svg">
<g clip-path="url(#clip0)">
<path d="M45.5351 44.6427C46.659 44.6427 47.6329 44.2716 48.4608 43.5388L34.295 29.3725C33.9551 29.6158 33.6257 29.8525 33.3145 30.0775C32.2544 30.8586 31.394 31.4681 30.7333 31.9048C30.0727 32.3425 29.1938 32.7887 28.0967 33.2442C26.9988 33.7003 25.976 33.9276 25.0272 33.9276H24.9994H24.9717C24.0228 33.9276 23 33.7004 21.9022 33.2442C20.8044 32.7887 19.9255 32.3425 19.2656 31.9048C18.605 31.4681 17.745 30.8587 16.6844 30.0775C16.3888 29.8609 16.061 29.6231 15.7066 29.3687L1.53809 43.5388C2.36589 44.2716 3.34039 44.6427 4.46422 44.6427H45.5351Z" fill="white"/>
<path d="M2.81838 20.4522C1.75837 19.7455 0.818363 18.9361 0 18.0244V39.5774L12.4857 27.0917C9.98784 25.3478 6.76949 23.1372 2.81838 20.4522Z" fill="white"/>
<path d="M47.21 20.4522C43.4096 23.0245 40.1795 25.2389 37.5194 27.0967L50.0002 39.5779V18.0244C49.2 18.9178 48.27 19.7266 47.21 20.4522Z" fill="white"/>
<path d="M45.5351 5.35706H4.46425C3.03141 5.35706 1.92982 5.8409 1.15812 6.8076C0.385778 7.77474 0.000244141 8.98427 0.000244141 10.4348C0.000244141 11.6065 0.511868 12.876 1.53466 14.2438C2.55746 15.611 3.64579 16.6849 4.79913 17.466C5.43139 17.9127 7.33809 19.2383 10.5192 21.4422C12.2365 22.6322 13.7299 23.6694 15.0132 24.5645C16.1071 25.3266 17.0504 25.9867 17.8293 26.5344C17.9187 26.5972 18.0593 26.6978 18.246 26.8312C18.447 26.9756 18.7015 27.1589 19.0154 27.3856C19.6199 27.8228 20.1221 28.1762 20.522 28.4461C20.9215 28.7162 21.4054 29.0179 21.9731 29.3528C22.5404 29.6873 23.0754 29.9389 23.5776 30.1062C24.0799 30.2734 24.5449 30.3573 24.9726 30.3573H25.0004H25.0282C25.4558 30.3573 25.9209 30.2734 26.4232 30.1062C26.9253 29.9389 27.4599 29.6879 28.0276 29.3528C28.5948 29.0179 29.0781 28.7156 29.4788 28.4461C29.8788 28.1762 30.381 27.8229 30.9855 27.3856C31.2988 27.1589 31.5533 26.9755 31.7543 26.8317C31.9411 26.6977 32.0816 26.5977 32.1716 26.5344C32.7783 26.1122 33.7239 25.4549 34.9951 24.5722C37.3083 22.965 40.715 20.5994 45.2296 17.466C46.5874 16.5177 47.7217 15.3732 48.6334 14.0343C49.5434 12.6954 49.9997 11.291 49.9997 9.82151C49.9997 8.59374 49.5573 7.54317 48.6745 6.66816C47.7907 5.79424 46.7441 5.35706 45.5351 5.35706Z" fill="white"/>
</g>
<defs>
<clipPath id="clip0">
<rect width="50" height="50" fill="white"/>
</clipPath>
</defs>
</svg>
