<svg width="50" height="50" viewBox="0 0 50 50" fill="none" xmlns="http://www.w3.org/2000/svg">
<path d="M42.7053 5.65991H41.2433V41.5779C41.2433 43.964 39.301 45.9063 36.9148 45.9063H22.1017H10.3223V47.2378C10.3223 48.7625 11.5597 49.9999 13.0844 49.9999H27.8922H42.7001C44.2247 49.9999 45.4622 48.7625 45.4622 47.2378V8.42203C45.4622 6.89738 44.23 5.65991 42.7053 5.65991Z" fill="white"/>
<path d="M22.102 44.34H36.9098C38.4345 44.34 39.6719 43.1025 39.6719 41.578V5.65998V2.76211C39.6719 1.23747 38.4345 0 36.9098 0H22.102H17.1782V0.913743C17.1886 1.00773 17.1939 1.10693 17.1939 1.20614V7.2264V8.77193C17.1939 10.9179 15.4499 12.6619 13.3039 12.6619H11.7584H5.73815C5.65983 12.6619 5.57629 12.6566 5.49797 12.6514H4.53723V41.578C4.53723 43.1025 5.7747 44.34 7.29935 44.34H10.3277H22.102ZM22.6607 34.952H13.0063C12.2858 34.952 11.701 34.3671 11.701 33.6466C11.701 32.926 12.2858 32.3413 13.0063 32.3413H22.6659C23.3864 32.3413 23.9712 32.926 23.9712 33.6466C23.9712 34.3671 23.3812 34.952 22.6607 34.952ZM32.3202 28.2895H13.0063C12.2858 28.2895 11.701 27.7047 11.701 26.9842C11.701 26.2636 12.2858 25.6788 13.0063 25.6788H32.3202C33.0408 25.6788 33.6256 26.2636 33.6256 26.9842C33.6256 27.7047 33.0408 28.2895 32.3202 28.2895ZM13.0063 18.6038H32.3202C33.0408 18.6038 33.6256 19.1886 33.6256 19.9091C33.6256 20.6297 33.0408 21.2145 32.3202 21.2145H13.0063C12.2858 21.2145 11.701 20.6297 11.701 19.9091C11.701 19.1886 12.2858 18.6038 13.0063 18.6038Z" fill="white"/>
<path d="M5.73799 11.0955H13.3037C13.309 11.0955 13.3194 11.0955 13.3246 11.0955C14.5882 11.0851 15.6116 10.0617 15.622 8.79814C15.622 8.79291 15.622 8.78247 15.622 8.77725V1.20624C15.622 0.506574 15.0477 0.0418701 14.4525 0.0418701C14.1653 0.0418701 13.8781 0.146298 13.638 0.386482L4.91301 9.11142C4.18202 9.84241 4.69893 11.0955 5.73799 11.0955Z" fill="white"/>
</svg>
